<svg xmlns="http://www.w3.org/2000/svg" width="29.592" height="29.592" viewBox="0 0 29.592 29.592">
  <path id="copyright-icon" d="M14.955,16.109a3.783,3.783,0,0,1,.444-1.287,2.588,2.588,0,0,1,.873-.917,2.626,2.626,0,0,1,1.346-.34,2.682,2.682,0,0,1,.932.192,2.386,2.386,0,0,1,.769.533,2.849,2.849,0,0,1,.5.784,2.591,2.591,0,0,1,.207.947h2.649a5.3,5.3,0,0,0-.414-1.909,4.44,4.44,0,0,0-1.036-1.494,4.833,4.833,0,0,0-1.6-.977,5.716,5.716,0,0,0-2.057-.34,5.783,5.783,0,0,0-2.515.5,5.088,5.088,0,0,0-1.776,1.361,5.562,5.562,0,0,0-1.051,2.012,8.665,8.665,0,0,0-.355,2.427V18a8.663,8.663,0,0,0,.34,2.427,5.379,5.379,0,0,0,1.051,2,5.051,5.051,0,0,0,1.776,1.346,6,6,0,0,0,2.515.5,5.643,5.643,0,0,0,1.953-.34A5.047,5.047,0,0,0,21.11,23a4.516,4.516,0,0,0,1.095-1.391,3.982,3.982,0,0,0,.444-1.7H20a2.107,2.107,0,0,1-.222.858,2.177,2.177,0,0,1-.533.681,2.33,2.33,0,0,1-.769.444,2.938,2.938,0,0,1-.888.148,2.513,2.513,0,0,1-1.317-.34,2.588,2.588,0,0,1-.873-.917,3.866,3.866,0,0,1-.444-1.3A9.973,9.973,0,0,1,14.837,18v-.4a9.858,9.858,0,0,1,.118-1.494ZM17.8,3a14.8,14.8,0,1,0,14.8,14.8A14.8,14.8,0,0,0,17.8,3Zm0,26.633A11.837,11.837,0,1,1,29.633,17.8,11.853,11.853,0,0,1,17.8,29.633Z" transform="translate(-3 -3)" fill="#f7f9fd"/>
</svg>
