<svg xmlns="http://www.w3.org/2000/svg" xmlns:xlink="http://www.w3.org/1999/xlink" width="1921" height="190" viewBox="0 0 1921 190">
  <defs>
    <clipPath id="clip-path">
      <rect id="Rectangle_1101" data-name="Rectangle 1101" width="1921" height="190" transform="translate(-1 2147)" fill="#fff" stroke="#707070" stroke-width="1"/>
    </clipPath>
  </defs>
  <g id="footer-bubbles" transform="translate(1 -2147)" clip-path="url(#clip-path)">
    <g id="footer-decorative-bubble" transform="translate(-44 2236.103)" fill="#4b64cf">
      <path d="M 456.0598449707031 277.6837768554688 C 436.9111328125 277.6837768554688 417.3664245605469 277.3893127441406 396.6741943359375 277.0775451660156 C 374.4853515625 276.7431945800781 351.5411376953125 276.3974304199219 327.4494934082031 276.3974304199219 C 316.404296875 276.3974304199219 304.8800659179688 275.6144714355469 293.1968994140625 274.0704650878906 C 281.9030151367188 272.577880859375 270.1856079101563 270.3377685546875 258.3699645996094 267.4124755859375 C 235.8637237548828 261.8402404785156 212.3668975830078 253.6418914794922 188.5319519042969 243.0451812744141 C 166.2200622558594 233.1255340576172 143.5041809082031 221.0618896484375 121.0152435302734 207.1895446777344 C 99.82583618164063 194.1187133789063 78.92618560791016 179.5031890869141 58.89677429199219 163.7488403320313 C 39.76995086669922 148.7043609619141 21.72077560424805 132.8515319824219 5.250539779663086 116.6307144165039 C -10.80863666534424 100.8147125244141 -24.97334289550781 85.04130554199219 -36.85004806518555 69.74871826171875 C -48.73016738891602 54.45177459716797 -57.97604751586914 40.08024597167969 -64.33075714111328 27.0331859588623 C -70.83969879150391 13.66942119598389 -74.14004516601563 2.044597864151001 -74.14004516601563 -7.51822566986084 C -74.14004516601563 -12.20940208435059 -73.57475280761719 -16.66481399536133 -72.45981597900391 -20.76069641113281 C -71.35511016845703 -24.81893157958984 -69.68004608154297 -28.63740158081055 -67.48098754882813 -32.10998916625977 C -65.29781341552734 -35.55763626098633 -62.53710556030273 -38.76128387451172 -59.27545928955078 -41.63163757324219 C -56.03216552734375 -44.48575592041016 -52.20392990112305 -47.08975601196289 -47.89698791503906 -49.37104797363281 C -43.61357879638672 -51.63999176025391 -38.73922348022461 -53.65210723876953 -33.40934371948242 -55.35140228271484 C -28.11063575744629 -57.04093170166016 -22.21663665771484 -58.4675178527832 -15.8911075592041 -59.59163665771484 C -3.352048397064209 -61.82010650634766 11.38065719604492 -62.94998931884766 27.89795112609863 -62.94998931884766 C 45.11254119873047 -62.94998931884766 64.70983123779297 -61.72363662719727 86.14547729492188 -59.304931640625 C 107.3195953369141 -56.9156379699707 130.8147735595703 -53.30352020263672 155.9785461425781 -48.56893157958984 C 180.8637237548828 -43.88669586181641 207.9967803955078 -37.99069595336914 236.6238403320313 -31.04481315612793 C 264.9733581542969 -24.16634368896484 295.485595703125 -16.08904838562012 327.3126525878906 -7.037284374237061 C 349.1179504394531 -0.8358725905418396 373.5374755859375 2.052480220794678 404.1624145507813 2.052480220794678 C 424.6626586914063 2.052480220794678 445.2048950195313 0.8177744746208191 466.953369140625 -0.4894020259380341 C 488.6497192382813 -1.793519616127014 511.0848999023438 -3.141990184783936 533.4083251953125 -3.141990184783936 C 556.2338256835938 -3.141990184783936 576.2827758789063 -1.708696126937866 594.70068359375 1.239774465560913 C 605.2254638671875 2.924715518951416 615.49169921875 5.158597946166992 625.2141723632813 7.879303932189941 C 635.6110229492188 10.78883361816406 645.7938232421875 14.36812782287598 655.47998046875 18.51800918579102 L 655.5194702148438 18.53495025634766 L 655.5613403320313 18.54483413696289 C 671.2963256835938 22.28059768676758 691.755615234375 27.25965690612793 710.4559326171875 32.64777374267578 C 728.8072509765625 37.93518447875977 743.7529907226563 43.10424423217773 756.147216796875 48.45024490356445 C 762.963623046875 51.39036178588867 769.1605224609375 54.45871734619141 774.5660400390625 57.57024383544922 C 780.239013671875 60.83577346801758 785.26806640625 64.27930450439453 789.5134887695313 67.80506896972656 C 793.9285278320313 71.47177124023438 797.6611328125 75.36412811279297 800.6076049804688 79.37400817871094 C 803.6522827148438 83.51765441894531 805.966796875 87.93506622314453 807.4867553710938 92.5035400390625 C 809.3278198242188 98.03753662109375 810.0745239257813 104.0105972290039 809.7059326171875 110.256950378418 C 809.3255004882813 116.7073059082031 807.7431030273438 123.6781311035156 805.0027465820313 130.9757690429688 C 802.1858520507813 138.4776611328125 798.0499267578125 146.5794219970703 792.7100830078125 155.0562438964844 C 787.2533569335938 163.7185363769531 780.3580932617188 173.0602722167969 772.2163696289063 182.8213653564453 C 759.073974609375 193.1336517333984 745.7550048828125 202.6194305419922 732.6277465820313 211.0168304443359 C 719.8545532226563 219.1875457763672 706.8093872070313 226.6173095703125 693.8545532226563 233.0996551513672 C 681.3367919921875 239.3631896972656 668.4410400390625 244.9730682373047 655.5254516601563 249.773193359375 C 643.1412353515625 254.3760070800781 630.255615234375 258.4131774902344 617.2266845703125 261.772705078125 C 593.2015991210938 267.9674072265625 567.6337280273438 272.1901245117188 539.0620727539063 274.681884765625 C 526.3449096679688 275.7909545898438 513.0347900390625 276.5672912597656 498.3710021972656 277.055419921875 C 485.6651306152344 277.4782409667969 471.8250122070313 277.6837768554688 456.0598449707031 277.6837768554688 Z" stroke="none"/>
      <path d="M 27.89794921875 -62.44998168945313 C 11.40997314453125 -62.44998168945313 -3.2933349609375 -61.32269287109375 -15.8035888671875 -59.09939575195313 C -22.10736083984375 -57.97903442382813 -27.97967529296875 -56.557861328125 -33.257568359375 -54.87506103515625 C -38.55908203125 -53.1846923828125 -43.40582275390625 -51.18423461914063 -47.6629638671875 -48.92929077148438 C -51.93536376953125 -46.66622924804688 -55.731201171875 -44.08470153808594 -58.94512939453125 -41.25634765625 C -62.17108154296875 -38.41728210449219 -64.90087890625 -35.24998474121094 -67.05865478515625 -31.84246826171875 C -69.23089599609375 -28.412109375 -70.88580322265625 -24.639404296875 -71.97735595703125 -20.62939453125 C -73.08062744140625 -16.57623291015625 -73.64007568359375 -12.16505432128906 -73.64007568359375 -7.518218994140625 C -73.64007568359375 1.968124389648438 -70.35675048828125 13.51918029785156 -63.8812255859375 26.81423950195313 C -57.54156494140625 39.83024597167969 -48.31414794921875 54.17236328125 -36.455078125 69.4420166015625 C -24.5919189453125 84.71730041503906 -10.44207763671875 100.4738922119141 5.60150146484375 116.2744827270508 C 22.05853271484375 132.4823608398438 40.0936279296875 148.3227233886719 59.2059326171875 163.3557739257813 C 79.22039794921875 179.0984802246094 100.1044311523438 193.7030639648438 121.2777099609375 206.7640075683594 C 143.7476196289063 220.6247100830078 166.443603515625 232.6776580810547 188.735107421875 242.5882415771484 C 212.5432739257813 253.1731872558594 236.0123291015625 261.3618774414063 258.4900512695313 266.9270629882813 C 270.287841796875 269.8480224609375 281.9869079589844 272.0845947265625 293.2624206542969 273.5748291015625 C 304.9239501953125 275.1160278320313 316.4261779785156 275.8974304199219 327.4494934082031 275.8974304199219 C 351.5448913574219 275.8974304199219 374.4911193847656 276.2431945800781 396.6817016601563 276.5775451660156 C 417.3720703125 276.8893127441406 436.9148864746094 277.1837768554688 456.0598449707031 277.1837768554688 C 471.8193664550781 277.1837768554688 485.6540832519531 276.9782409667969 498.3544311523438 276.5556640625 C 513.009033203125 276.0679016113281 526.3104248046875 275.2919921875 539.0186767578125 274.1837768554688 C 567.5625610351563 271.6943664550781 593.1036987304688 267.4763793945313 617.1016845703125 261.2884826660156 C 630.1140747070313 257.9332885742188 642.983154296875 253.9013061523438 655.3512573242188 249.3045959472656 C 668.2499389648438 244.5105895996094 681.1290283203125 238.9080047607422 693.6307983398438 232.6524810791016 C 706.5699462890625 226.1780090332031 719.599853515625 218.7569580078125 732.3582763671875 210.5956573486328 C 745.45849609375 202.2155609130859 758.7495727539063 192.7505493164063 771.8660888671875 182.4605560302734 C 779.9794921875 172.7307281494141 786.8494262695313 163.4216461181641 792.2869873046875 154.7897796630859 C 797.60888671875 146.3415374755859 801.7296142578125 138.2702484130859 804.53466796875 130.8000183105469 C 807.2573852539063 123.5494232177734 808.8292236328125 116.6277770996094 809.2069091796875 110.2275390625 C 809.5715942382813 104.0448303222656 808.833251953125 98.13483428955078 807.0123291015625 92.66142272949219 C 805.5089111328125 88.14247894287109 803.2184448242188 83.77165985107422 800.2046508789063 79.67001342773438 C 797.2822875976563 75.69306945800781 793.5778198242188 71.83047485351563 789.1939697265625 68.18977355957031 C 784.9703979492188 64.6820068359375 779.9650268554688 61.25494384765625 774.3165283203125 58.003662109375 C 768.9276123046875 54.90165710449219 762.7479248046875 51.84188842773438 755.9490966796875 48.909423828125 C 743.5745239257813 43.5718994140625 728.6483154296875 38.40977478027344 710.317626953125 33.12825012207031 C 691.6272583007813 27.74307250976563 671.1753540039063 22.76577758789063 655.4459228515625 19.03131103515625 L 655.3621826171875 19.01142883300781 L 655.2831420898438 18.9775390625 C 645.6170043945313 14.83636474609375 635.4550170898438 11.26435852050781 625.0794677734375 8.36083984375 C 615.3751220703125 5.645065307617188 605.1275634765625 3.415298461914063 594.62158203125 1.733306884765625 C 576.229248046875 -1.211166381835938 556.2061767578125 -2.642349243164063 533.4083251953125 -2.641983032226563 C 511.1013488769531 -2.641632080078125 488.6753540039063 -1.29376220703125 466.9877014160156 0.0096588134765625 C 445.2300720214844 1.317306518554688 424.6791381835938 2.552474975585938 404.1624145507813 2.552474975585938 C 373.4895935058594 2.552474975585938 349.0266723632813 -0.3418731689453125 327.1759643554688 -6.556350708007813 C 295.3550109863281 -15.60633850097656 264.8492431640625 -23.68199157714844 236.5059814453125 -30.55892944335938 C 207.8872680664063 -37.50270080566406 180.7627563476563 -43.39682006835938 155.8860473632813 -48.0775146484375 C 130.7343139648438 -52.80987548828125 107.2513427734375 -56.42010498046875 86.08935546875 -58.8079833984375 C 64.67230224609375 -61.22470092773438 45.09393310546875 -62.44998168945313 27.89794921875 -62.44998168945313 M 27.89794921875 -63.45001220703125 C 97.585693359375 -63.45001220703125 200.1544189453125 -43.72129821777344 327.4494934082031 -7.518218994140625 C 351.8839416503906 -0.5689849853515625 377.6077880859375 1.552520751953125 404.1624145507813 1.552520751953125 C 445.7329711914063 1.552520751953125 489.3670043945313 -3.641311645507813 533.4083251953125 -3.642044067382813 C 574.262451171875 -3.642715454101563 615.4549560546875 0.826202392578125 655.6768798828125 18.05836486816406 C 779.3735961914063 47.42648315429688 862.31591796875 75.61531066894531 772.5665283203125 183.18212890625 C 665.2830200195313 267.379150390625 571.4453125 278.1838073730469 456.0597839355469 278.1838073730469 C 416.2337951660156 278.1838073730469 373.8529052734375 276.8974304199219 327.4494934082031 276.8974304199219 C 146.6040649414063 276.8974304199219 -74.64007568359375 71.02095031738281 -74.64007568359375 -7.518218994140625 C -74.64007568359375 -45.72842407226563 -38.12860107421875 -63.45001220703125 27.89794921875 -63.45001220703125 Z" stroke="none" fill="#707070"/>
    </g>
    <g id="footer-rect" transform="translate(0 2207)" fill="rgba(75,100,207,0.75)" stroke="#707070" stroke-width="1">
      <path d="M30,0H1890a30,30,0,0,1,30,30V130a0,0,0,0,1,0,0H0a0,0,0,0,1,0,0V30A30,30,0,0,1,30,0Z" stroke="none"/>
      <path d="M30,.5H1890A29.5,29.5,0,0,1,1919.5,30v99a.5.5,0,0,1-.5.5H1a.5.5,0,0,1-.5-.5V30A29.5,29.5,0,0,1,30,.5Z" fill="none"/>
    </g>
  </g>
</svg>
