<svg xmlns="http://www.w3.org/2000/svg" width="130" height="53" viewBox="0 0 130 53">
  <g id="footer-pink-logo" transform="translate(-672 -577.849)">
    <text id="peristent-academy" transform="translate(713 601.849)" fill="#f7f9fd" font-size="15" font-family="TrebuchetMS, Trebuchet MS"><tspan x="0" y="0">Persistent</tspan><tspan x="0" y="17">Academy</tspan></text>
    <path id="infinity-icon" d="M28.358.918a6.9,6.9,0,0,0-5.1-1.851A8.062,8.062,0,0,0,18,1.326L16.654,2.548l2.34,2.263,1.3-1.183L20.3,3.62a4.348,4.348,0,0,1,2.817-1.215,3.709,3.709,0,0,1,2.729.985A3.337,3.337,0,0,1,26.87,5.978a3.92,3.92,0,0,1-1.238,2.664,4.348,4.348,0,0,1-2.817,1.215,3.709,3.709,0,0,1-2.729-.985L12.435,1.557A6.919,6.919,0,0,0,7.34-.295,8.04,8.04,0,0,0,2.072,1.973,7.471,7.471,0,0,0-.283,7.061a6.344,6.344,0,0,0,1.954,4.915,6.9,6.9,0,0,0,5.1,1.851,8.008,8.008,0,0,0,5.26-2.267L14.92,8.793l2.666,2.544a6.919,6.919,0,0,0,5.1,1.851,8.034,8.034,0,0,0,5.26-2.26A7.45,7.45,0,0,0,30.3,5.84,6.318,6.318,0,0,0,28.358.918ZM9.724,9.28a4.348,4.348,0,0,1-2.817,1.215A3.709,3.709,0,0,1,4.178,9.51,3.337,3.337,0,0,1,3.151,6.923,3.92,3.92,0,0,1,4.389,4.259,4.348,4.348,0,0,1,7.206,3.044a3.709,3.709,0,0,1,2.729.985L12.58,6.551Z" transform="translate(690.602 588.221) rotate(45)" fill="#fac7c2"/>
    <g id="border-rect" transform="translate(672 577.849)" fill="none" stroke="#fac7c2" stroke-width="3">
      <rect width="130" height="53" stroke="none"/>
      <rect x="1.5" y="1.5" width="127" height="50" fill="none"/>
    </g>
  </g>
</svg>
