<svg xmlns="http://www.w3.org/2000/svg" width="247.13" height="192.636" viewBox="0 0 247.13 192.636">
  <g id="gravity" transform="translate(0 -56.449)">
    <g id="Group_157" data-name="Group 157" transform="translate(62.359 62.167)">
      <path id="Path_572" data-name="Path 572" d="M240.479,113.516,231.5,119.57l-86.7,58.363-6.92-10.256-18.37-27.308-4.613-6.837a4.086,4.086,0,0,1,.083-4.7,3.506,3.506,0,0,1,1.03-1.03l20.512-13.8,23.889-16.1,23.93-16.1L204.851,68a4.119,4.119,0,0,1,5.725,1.112l4.572,6.837L233.56,103.3Z" transform="translate(-114.195 -67.296)" fill="#ad1457"/>
      <path id="Path_573" data-name="Path 573" d="M231.5,126.281l-86.7,58.363-6.92-10.256-18.37-27.308-4.613-6.837a4.086,4.086,0,0,1,.083-4.7l12.727-8.567,23.93-16.1,23.889-16.1,20.512-13.8a4.119,4.119,0,0,1,5.725,1.112l4.572,6.837,18.411,27.349Z" transform="translate(-114.195 -74.006)" fill="#e91e63"/>
    </g>
    <g id="Group_158" data-name="Group 158" transform="translate(0 56.449)">
      <path id="Path_574" data-name="Path 574" d="M400.933,81.549a4.119,4.119,0,0,0-5.717-1.116l-50.97,34.3-4.6-6.821a4.121,4.121,0,1,0-6.838,4.6l4.6,6.833L300.484,144.2a4.12,4.12,0,0,0,4.605,6.833l94.732-63.771A4.119,4.119,0,0,0,400.933,81.549Z" transform="translate(-154.508 -68.493)"/>
      <path id="Path_575" data-name="Path 575" d="M.706,339.065a4.119,4.119,0,0,0,5.717,1.116l88.83-59.805,22.37-15.062a4.12,4.12,0,0,0-4.605-6.833L94.071,271.249l-4.6-6.833a4.119,4.119,0,0,0-6.833,4.6l4.6,6.833L1.818,333.344a4.118,4.118,0,0,0-1.112,5.721Z" transform="translate(0 -160.601)"/>
      <path id="Path_576" data-name="Path 576" d="M220.542,58.269a4.119,4.119,0,0,0-5.721-1.116l-95.672,64.4a4.119,4.119,0,0,0-1.116,5.717l6.92,10.252a4.121,4.121,0,0,0,6.838-4.6l-4.6-6.833L216,66.289l4.6,6.829a4.12,4.12,0,0,0,6.838-4.6Z" transform="translate(-60.698 -56.449)"/>
      <path id="Path_577" data-name="Path 577" d="M104.584,224.426l-3.353,17.151a4.112,4.112,0,0,0,0,1.47,3.91,3.91,0,0,0,.107.412,4.02,4.02,0,0,0,.412.951,3.441,3.441,0,0,0,.214.358,4.119,4.119,0,0,0,.951.956c.025,0,.041.041.066.057a4.183,4.183,0,0,0,1.343.548c.054,0,.091.049.144.057l17.151,3.349a4.032,4.032,0,0,0,.795.078,4.119,4.119,0,0,0,.782-8.16l-7.389-1.446,39.582-26.649a4.119,4.119,0,1,0-4.6-6.833l-39.582,26.649,1.442-7.389a4.119,4.119,0,0,0-8.081-1.582Z" transform="translate(-52.335 -133.825)"/>
      <path id="Path_578" data-name="Path 578" d="M300.083,107.719a4.119,4.119,0,0,0,5.717,1.116l39.586-26.649-1.437,7.389a4.119,4.119,0,0,0,3.254,4.832,4.033,4.033,0,0,0,.795.078,4.119,4.119,0,0,0,4.037-3.328l3.353-17.151v-.153a4.108,4.108,0,0,0,0-1.454v-.062a4.156,4.156,0,0,0-.535-1.236,3.813,3.813,0,0,0-.247-.33,3.929,3.929,0,0,0-.737-.741,3.51,3.51,0,0,0-.346-.255,4.12,4.12,0,0,0-1.355-.56l-17.151-3.353a4.119,4.119,0,1,0-1.578,8.085l7.389,1.446L301.24,102.043A4.119,4.119,0,0,0,300.083,107.719Z" transform="translate(-154.894 -61.28)"/>
      <path id="Path_579" data-name="Path 579" d="M251.051,165.419a4.119,4.119,0,0,0-4.119,4.119V291.4l-9.444-9.444a4.119,4.119,0,0,0-5.824,5.824l16.475,16.475a4.1,4.1,0,0,0,4.477.893,4.107,4.107,0,0,0,1.211-.824c.037-.033.086-.045.124-.083l16.475-16.475a4.119,4.119,0,0,0-5.824-5.824L255.17,291.4V169.538A4.12,4.12,0,0,0,251.051,165.419Z" transform="translate(-119.248 -112.822)"/>
    </g>
  </g>
</svg>
