<svg xmlns="http://www.w3.org/2000/svg" width="200.187" height="235.786" viewBox="0 0 200.187 235.786">
  <g id="magnet" transform="translate(-21.539 -2.607)">
    <path id="Path_580" data-name="Path 580" d="M143.69,98.716,128.2,96.693,140.617,83.6a9,9,0,1,0-13.058-12.383L103,97.119a9.106,9.106,0,0,0-2.41,5.04,8.99,8.99,0,0,0,7.757,10.088l15.295,2-16.853,17.392a9,9,0,1,0,12.925,12.524l29.283-30.22A9.05,9.05,0,0,0,143.69,98.716Z" transform="translate(-4.723 -3.936)" fill="#f9d335"/>
    <path id="Path_581" data-name="Path 581" d="M120.932,6.612c-53.039.511-95.393,44.521-95.393,97.561V182.74a4.826,4.826,0,0,0,4.826,4.826h20.1a4.826,4.826,0,0,0,4.826-4.826V103.934c0-36.855,29.523-67.461,66.378-67.572a66.578,66.578,0,0,1,66.779,66.582v79.8a4.826,4.826,0,0,0,4.826,4.826h20.1a4.826,4.826,0,0,0,4.826-4.826v-79.8A96.44,96.44,0,0,0,120.932,6.612Z" transform="translate(-0.239 -0.239)" fill="#3193f3"/>
    <path id="Path_582" data-name="Path 582" d="M122.445,112.248l15.3,2-16.848,17.384a9,9,0,0,0-.564,11.884l-.621.639a8.994,8.994,0,0,1-10.775,1.645,9.465,9.465,0,0,1-1.946-1.438,9,9,0,0,1-.2-12.73l16.848-17.384-15.3-2a8.993,8.993,0,0,1-7.757-10.088,8.825,8.825,0,0,1,.865-2.811.071.071,0,0,1,.019-.038A8.84,8.84,0,0,1,103,97.121l24.558-25.9a9,9,0,0,1,12.721-.338,8.431,8.431,0,0,1,.837.912C116.5,97.755,116.607,97.24,115.572,99.311a.071.071,0,0,0-.019.038,8.984,8.984,0,0,0,6.892,12.9Z" transform="translate(-4.723 -3.936)" fill="#f9e27d"/>
    <path id="Path_583" data-name="Path 583" d="M223.885,102.948v79.794a4.827,4.827,0,0,1-4.823,4.823h-14.1a4.827,4.827,0,0,0,4.823-4.823V102.948A96.449,96.449,0,0,0,120.54,6.87q3.018-.24,6.074-.263A96.444,96.444,0,0,1,223.885,102.948Z" transform="translate(-5.921 -0.239)" fill="#307fed"/>
    <path id="Path_584" data-name="Path 584" d="M223.867,197.435H203.515a4.7,4.7,0,0,1-4.7-4.7V171.618h29.754v21.116A4.7,4.7,0,0,1,223.867,197.435Z" transform="translate(-10.603 -10.109)" fill="#87828e"/>
    <path id="Path_585" data-name="Path 585" d="M229.264,171.617v21.117a4.7,4.7,0,0,1-4.7,4.7h-14.1a4.7,4.7,0,0,0,4.7-4.7V171.617Z" transform="translate(-11.3 -10.109)" fill="#796e84"/>
    <path id="Path_586" data-name="Path 586" d="M121.872,6.607V36.364h-.2C84.819,36.477,55.3,67.08,55.3,103.935v78.807a4.829,4.829,0,0,1-4.833,4.823h-20.1a4.827,4.827,0,0,1-4.823-4.823V104.17c0-53.036,42.355-97.046,95.391-97.563h.94Z" transform="translate(-0.239 -0.239)" fill="#ff4a73"/>
    <path id="Path_587" data-name="Path 587" d="M121.872,6.607V7.651C75.163,14.608,39.643,55.6,39.643,104.17v78.571a4.827,4.827,0,0,0,4.823,4.823h-14.1a4.827,4.827,0,0,1-4.823-4.823V104.17c0-53.036,42.355-97.046,95.391-97.563h.94Z" transform="translate(-0.239 -0.239)" fill="#f973a3"/>
    <path id="Path_588" data-name="Path 588" d="M50.592,197.435H30.24a4.7,4.7,0,0,1-4.7-4.7V171.618H55.293v21.116A4.7,4.7,0,0,1,50.592,197.435Z" transform="translate(-0.239 -10.109)" fill="#87828e"/>
    <path id="Path_589" data-name="Path 589" d="M44.344,197.435h-14.1a4.7,4.7,0,0,1-4.7-4.7V171.617h14.1v21.117A4.7,4.7,0,0,0,44.344,197.435Z" transform="translate(-0.239 -10.109)" fill="#a4a4a5"/>
    <g id="Group_159" data-name="Group 159" transform="translate(21.539 2.607)">
      <path id="Path_590" data-name="Path 590" d="M143.943,94.736l-8.17-1.062,7.333-7.738c11.609-12.218-6.913-29.8-18.512-17.553C99.871,94.449,97.387,95.5,96.623,101.421a12.732,12.732,0,0,0,11,14.31l7.869,1.025-11.649,12.016c-11.716,12.1,6.628,29.824,18.334,17.76L151.455,116.3a12.817,12.817,0,0,0-7.512-21.568Zm2.115,16.34-29.287,30.218c-4.893,5.034-12.333-2.34-7.521-7.286L126.1,116.615a3.76,3.76,0,0,0-2.209-6.346l-15.3-2a5.216,5.216,0,0,1-4.024-7.484.071.071,0,0,0,.019-.038c.61-1.219-.378.067,25.46-27.19,4.771-5,12.358,2.19,7.606,7.211l-12.42,13.087a3.768,3.768,0,0,0,2.247,6.318l15.485,2.021a5.291,5.291,0,0,1,3.093,8.885Z" transform="translate(-26.023 -6.293)" fill="#5f266d"/>
      <path id="Path_591" data-name="Path 591" d="M221.715,182.944c.015-.169.009-80.065.009-80.236A100.223,100.223,0,0,0,121.632,2.607C66.489,2.607,21.54,48.3,21.54,103.931v78.694a8.471,8.471,0,0,0,8.142,8.452c.114.01,20.775.019,20.985,0a8.471,8.471,0,0,0,8.151-8.452V103.7c0-35.108,28.157-63.811,62.814-63.811a62.769,62.769,0,0,1,62.814,62.823c0,.17-.006,80.066.009,80.236a8.463,8.463,0,0,0,8.142,8.133c.113.01,20.775.019,20.985,0a8.459,8.459,0,0,0,8.133-8.133ZM29.061,182.5V165.269H51.3V182.5a1.069,1.069,0,0,1-1.072,1.062h-20.1a1.067,1.067,0,0,1-1.062-1.062ZM51.3,103.7v54.051H29.061V103.931c0-48.224,37.293-91.485,88.81-93.727V32.467A70.878,70.878,0,0,0,51.3,103.7Zm74.1-93.483a92.691,92.691,0,0,1,88.81,92.5v55.039H191.968V102.709a70.271,70.271,0,0,0-66.575-70.241ZM191.968,182.5V165.269H214.2V182.5a1.067,1.067,0,0,1-1.062,1.062h-20.1A1.069,1.069,0,0,1,191.968,182.5Z" transform="translate(-21.539 -2.607)" fill="#5f266d"/>
      <path id="Path_592" data-name="Path 592" d="M21.539,216.206v18.659c0,4.969,7.522,4.975,7.522,0V216.206C29.061,211.237,21.539,211.229,21.539,216.206Z" transform="translate(-21.539 -15.16)" fill="#5f266d"/>
      <path id="Path_593" data-name="Path 593" d="M37.363,229.344V248c0,4.969,7.522,4.975,7.522,0V229.344C44.885,224.375,37.363,224.368,37.363,229.344Z" transform="translate(-22.485 -15.946)" fill="#5f266d"/>
      <path id="Path_594" data-name="Path 594" d="M53.186,216.206v18.659c0,4.969,7.522,4.975,7.522,0V216.206C60.708,211.237,53.186,211.229,53.186,216.206Z" transform="translate(-23.432 -15.16)" fill="#5f266d"/>
      <path id="Path_595" data-name="Path 595" d="M194.813,216.206v18.659c0,4.969,7.522,4.975,7.522,0V216.206C202.335,211.237,194.813,211.229,194.813,216.206Z" transform="translate(-31.903 -15.16)" fill="#5f266d"/>
      <path id="Path_596" data-name="Path 596" d="M210.638,229.344V248c0,4.969,7.521,4.975,7.521,0V229.344C218.16,224.375,210.638,224.368,210.638,229.344Z" transform="translate(-32.849 -15.946)" fill="#5f266d"/>
      <path id="Path_597" data-name="Path 597" d="M226.461,216.206v18.659c0,4.969,7.522,4.975,7.522,0V216.206C233.982,211.237,226.461,211.229,226.461,216.206Z" transform="translate(-33.796 -15.16)" fill="#5f266d"/>
      <path id="Path_598" data-name="Path 598" d="M37.36,113.6v22.565c0,4.969,7.522,4.976,7.522,0V113.6C44.882,108.631,37.36,108.623,37.36,113.6Z" transform="translate(-22.485 -9.023)" fill="#5f266d"/>
      <path id="Path_599" data-name="Path 599" d="M37.36,152.6v1.58c0,4.969,7.522,4.976,7.522,0V152.6C44.882,147.631,37.36,147.623,37.36,152.6Z" transform="translate(-22.485 -11.355)" fill="#5f266d"/>
    </g>
  </g>
</svg>
