<svg xmlns="http://www.w3.org/2000/svg" width="180.239" height="172.411" viewBox="0 0 180.239 172.411">
  <g id="civics-icon" transform="translate(0.002 -11.118)">
    <g id="Group_153" data-name="Group 153" transform="translate(2.639 13.757)">
      <g id="Group_89" data-name="Group 89" transform="translate(62.589)">
        <g id="Group_88" data-name="Group 88">
          <g id="Group_87" data-name="Group 87">
            <g id="Group_86" data-name="Group 86">
              <g id="Group_85" data-name="Group 85">
                <g id="Group_84" data-name="Group 84">
                  <g id="Group_83" data-name="Group 83" transform="translate(0 25.466)">
                    <g id="Group_82" data-name="Group 82">
                      <path id="Path_509" data-name="Path 509" d="M235.077,141.187H185.3l3.089-16.124a11.759,11.759,0,0,1,7.944-8.98l13.857-4.464,13.857,4.464a11.76,11.76,0,0,1,7.944,8.98Z" transform="translate(-185.298 -104.344)" fill="#5b5555"/>
                      <path id="Path_510" data-name="Path 510" d="M296.34,146.163h-8.164l-3.087-18.175a13.4,13.4,0,0,0-5.245-8.692l5.463,1.76a11.77,11.77,0,0,1,7.945,8.98Z" transform="translate(-246.561 -109.319)" fill="#444"/>
                      <path id="Path_511" data-name="Path 511" d="M245.339,115.7l-12.684,32.381L219.971,115.7l12.684-4.091Z" transform="translate(-207.765 -104.34)" fill="#efe2dd"/>
                      <path id="Path_512" data-name="Path 512" d="M252.083,90.954v10.241a4.661,4.661,0,1,1-9.322,0V90.954Z" transform="translate(-222.532 -90.954)" fill="#ba5d4f"/>
                    </g>
                  </g>
                  <path id="Path_513" data-name="Path 513" d="M233.247,18.618a12.361,12.361,0,0,0-12.361,12.361V36.35a12.363,12.363,0,0,0,24.723,0V30.979A12.361,12.361,0,0,0,233.247,18.618Z" transform="translate(-208.358 -18.617)" fill="#c86f5c"/>
                  <path id="Path_514" data-name="Path 514" d="M261.277,30.978v5.369a12.557,12.557,0,0,1-12.361,12.2,11.848,11.848,0,0,1-3.851-.645,12.58,12.58,0,0,0,8.51-11.556V30.978a12.369,12.369,0,0,0-8.51-11.754,12.374,12.374,0,0,1,16.212,11.754Z" transform="translate(-224.025 -18.614)" fill="#ba5d4f"/>
                </g>
              </g>
            </g>
          </g>
        </g>
      </g>
      <g id="Group_90" data-name="Group 90" transform="translate(53.803 60.77)">
        <path id="Path_515" data-name="Path 515" d="M187.6,220.691h48.159v58.034H187.6Z" transform="translate(-178.004 -210.324)" fill="#a34f41"/>
        <path id="Path_516" data-name="Path 516" d="M235.759,220.694v58.032h-8.924V237.107a5.546,5.546,0,0,0-5.546-5.546H187.6V220.694Z" transform="translate(-178.004 -210.326)" fill="#873f30"/>
        <path id="Path_517" data-name="Path 517" d="M224.158,203.989H163.873a3.533,3.533,0,0,1-3.533-3.533v-5.681a3.533,3.533,0,0,1,3.533-3.533h60.286a3.533,3.533,0,0,1,3.533,3.533v5.681a3.533,3.533,0,0,1-3.533,3.533Z" transform="translate(-160.34 -191.243)" fill="#ba5d4f"/>
        <path id="Path_518" data-name="Path 518" d="M328.989,194.775v5.682a3.534,3.534,0,0,1-3.531,3.534h-8.787a3.534,3.534,0,0,0,3.531-3.534v-5.682a3.531,3.531,0,0,0-3.531-3.531h8.787A3.531,3.531,0,0,1,328.989,194.775Z" transform="translate(-261.639 -191.244)" fill="#a34f41"/>
      </g>
      <g id="Group_115" data-name="Group 115" transform="translate(21.87 89.645)">
        <g id="Group_98" data-name="Group 98" transform="translate(43.739)">
          <g id="Group_97" data-name="Group 97">
            <g id="Group_96" data-name="Group 96">
              <g id="Group_95" data-name="Group 95">
                <g id="Group_94" data-name="Group 94">
                  <g id="Group_93" data-name="Group 93">
                    <g id="Group_92" data-name="Group 92" transform="translate(0 22.581)">
                      <g id="Group_91" data-name="Group 91">
                        <path id="Path_519" data-name="Path 519" d="M237.614,389.225H193.875l3.176-37.8a12.372,12.372,0,0,1,8.535-10.74l10.158-3.272,10.158,3.272a12.372,12.372,0,0,1,8.535,10.74Z" transform="translate(-193.875 -337.413)" fill="#bcea73"/>
                        <path id="Path_520" data-name="Path 520" d="M287.547,392.347h-9.072L275.3,352.433c-.343-4.312-.912-8.1-4.361-10.2l4.9,1.577a12.37,12.37,0,0,1,8.534,10.739Z" transform="translate(-243.809 -340.534)" fill="#a3e440"/>
                      </g>
                    </g>
                    <path id="Path_521" data-name="Path 521" d="M236.007,273.271a10.862,10.862,0,0,0-10.861,10.861v4.719a10.862,10.862,0,0,0,21.723,0v-4.719A10.862,10.862,0,0,0,236.007,273.271Z" transform="translate(-214.138 -273.27)" fill="#d5887a"/>
                    <path id="Path_522" data-name="Path 522" d="M260.634,284.132v4.717a11.033,11.033,0,0,1-10.861,10.721A10.408,10.408,0,0,1,246.39,299a11.053,11.053,0,0,0,7.477-10.154v-4.717A10.868,10.868,0,0,0,246.39,273.8a10.872,10.872,0,0,1,14.244,10.328Z" transform="translate(-227.903 -273.268)" fill="#c86f5c"/>
                  </g>
                </g>
              </g>
            </g>
          </g>
        </g>
        <g id="Group_106" data-name="Group 106" transform="translate(87.479)">
          <g id="Group_105" data-name="Group 105">
            <g id="Group_104" data-name="Group 104">
              <g id="Group_103" data-name="Group 103">
                <g id="Group_102" data-name="Group 102">
                  <g id="Group_101" data-name="Group 101">
                    <g id="Group_100" data-name="Group 100" transform="translate(0 22.581)">
                      <g id="Group_99" data-name="Group 99">
                        <path id="Path_523" data-name="Path 523" d="M361.867,389.225H318.128l3.176-37.8a12.372,12.372,0,0,1,8.535-10.74L340,337.413l10.158,3.272a12.372,12.372,0,0,1,8.535,10.74Z" transform="translate(-318.128 -337.413)" fill="#fcb44d"/>
                        <path id="Path_524" data-name="Path 524" d="M411.8,392.347h-9.072l-3.177-39.914c-.343-4.312-.912-8.1-4.361-10.2l4.9,1.577a12.37,12.37,0,0,1,8.534,10.739Z" transform="translate(-368.061 -340.534)" fill="#fb9927"/>
                      </g>
                    </g>
                    <path id="Path_525" data-name="Path 525" d="M360.259,273.271A10.862,10.862,0,0,0,349.4,284.132v4.719a10.862,10.862,0,0,0,21.723,0v-4.719A10.862,10.862,0,0,0,360.259,273.271Z" transform="translate(-338.39 -273.27)" fill="#a34f41"/>
                    <path id="Path_526" data-name="Path 526" d="M384.887,284.132v4.717a11.033,11.033,0,0,1-10.861,10.721,10.408,10.408,0,0,1-3.384-.566,11.053,11.053,0,0,0,7.477-10.154v-4.717a10.868,10.868,0,0,0-7.477-10.328,10.872,10.872,0,0,1,14.244,10.328Z" transform="translate(-352.156 -273.268)" fill="#873f30"/>
                  </g>
                </g>
              </g>
            </g>
          </g>
        </g>
        <g id="Group_114" data-name="Group 114">
          <g id="Group_113" data-name="Group 113">
            <g id="Group_112" data-name="Group 112">
              <g id="Group_111" data-name="Group 111">
                <g id="Group_110" data-name="Group 110">
                  <g id="Group_109" data-name="Group 109">
                    <g id="Group_108" data-name="Group 108" transform="translate(0 22.581)">
                      <g id="Group_107" data-name="Group 107">
                        <path id="Path_527" data-name="Path 527" d="M113.366,389.225H69.627l3.176-37.8a12.372,12.372,0,0,1,8.535-10.74L91.5,337.413l10.158,3.272a12.372,12.372,0,0,1,8.535,10.74Z" transform="translate(-69.627 -337.413)" fill="#27d1b3"/>
                        <path id="Path_528" data-name="Path 528" d="M163.312,392.347h-9.075l-3.177-39.914c-.343-4.312-.909-8.095-4.355-10.2l4.893,1.577a12.373,12.373,0,0,1,8.537,10.739Z" transform="translate(-119.571 -340.534)" fill="#20b69f"/>
                      </g>
                    </g>
                    <path id="Path_529" data-name="Path 529" d="M111.758,273.271A10.862,10.862,0,0,0,100.9,284.132v4.719a10.862,10.862,0,0,0,21.723,0v-4.719A10.862,10.862,0,0,0,111.758,273.271Z" transform="translate(-89.889 -273.27)" fill="#ffcec0"/>
                    <path id="Path_530" data-name="Path 530" d="M136.386,284.132v4.717a11.033,11.033,0,0,1-10.861,10.721,10.408,10.408,0,0,1-3.384-.566,11.053,11.053,0,0,0,7.477-10.154v-4.717a10.868,10.868,0,0,0-7.477-10.328,10.872,10.872,0,0,1,14.244,10.328Z" transform="translate(-103.655 -273.268)" fill="#fdb0a0"/>
                  </g>
                </g>
              </g>
            </g>
          </g>
        </g>
      </g>
      <g id="Group_151" data-name="Group 151" transform="translate(0 118.57)">
        <g id="Group_132" data-name="Group 132">
          <g id="Group_123" data-name="Group 123">
            <g id="Group_122" data-name="Group 122">
              <g id="Group_121" data-name="Group 121">
                <g id="Group_120" data-name="Group 120">
                  <g id="Group_119" data-name="Group 119">
                    <g id="Group_118" data-name="Group 118">
                      <g id="Group_117" data-name="Group 117" transform="translate(0 22.581)">
                        <g id="Group_116" data-name="Group 116">
                          <path id="Path_531" data-name="Path 531" d="M51.241,445.56H7.5l2.714-14.167A10.332,10.332,0,0,1,17.2,423.5l12.175-3.922L41.547,423.5a10.333,10.333,0,0,1,6.98,7.891Z" transform="translate(-7.502 -419.58)" fill="#fb3a82"/>
                          <path id="Path_532" data-name="Path 532" d="M105.069,449.933H96.136l-2.713-15.97c-.544-3.2-.476-5.939-2.849-7.637l4.8,1.546a10.341,10.341,0,0,1,6.981,7.891Z" transform="translate(-61.331 -423.951)" fill="#fb1466"/>
                        </g>
                      </g>
                      <path id="Path_533" data-name="Path 533" d="M49.633,355.437A10.862,10.862,0,0,0,38.772,366.3v4.719a10.862,10.862,0,0,0,21.723,0V366.3A10.862,10.862,0,0,0,49.633,355.437Z" transform="translate(-27.764 -355.436)" fill="#a34f41"/>
                      <path id="Path_534" data-name="Path 534" d="M74.261,366.3v4.717A11.033,11.033,0,0,1,63.4,381.736a10.407,10.407,0,0,1-3.384-.566,11.053,11.053,0,0,0,7.477-10.154V366.3a10.868,10.868,0,0,0-7.477-10.328A10.872,10.872,0,0,1,74.261,366.3Z" transform="translate(-41.53 -355.434)" fill="#873f30"/>
                    </g>
                  </g>
                </g>
              </g>
            </g>
          </g>
          <g id="Group_131" data-name="Group 131" transform="translate(43.739)">
            <g id="Group_130" data-name="Group 130">
              <g id="Group_129" data-name="Group 129">
                <g id="Group_128" data-name="Group 128">
                  <g id="Group_127" data-name="Group 127">
                    <g id="Group_126" data-name="Group 126">
                      <g id="Group_125" data-name="Group 125" transform="translate(0 22.581)">
                        <g id="Group_124" data-name="Group 124">
                          <path id="Path_535" data-name="Path 535" d="M175.489,445.56H131.75l2.714-14.167a10.333,10.333,0,0,1,6.98-7.891l12.175-3.922,12.175,3.922a10.333,10.333,0,0,1,6.98,7.891Z" transform="translate(-131.75 -419.58)" fill="#21c1f8"/>
                          <path id="Path_536" data-name="Path 536" d="M229.32,449.933h-8.933l-2.713-15.97c-.544-3.2-.476-5.939-2.849-7.637l4.8,1.546a10.333,10.333,0,0,1,6.978,7.891Z" transform="translate(-185.581 -423.951)" fill="#1faaee"/>
                        </g>
                      </g>
                      <path id="Path_537" data-name="Path 537" d="M173.882,355.437A10.862,10.862,0,0,0,163.021,366.3v4.719a10.862,10.862,0,0,0,21.723,0V366.3A10.862,10.862,0,0,0,173.882,355.437Z" transform="translate(-152.013 -355.436)" fill="#ffcec0"/>
                      <path id="Path_538" data-name="Path 538" d="M198.509,366.3v4.717a11.033,11.033,0,0,1-10.861,10.721,10.408,10.408,0,0,1-3.384-.566,11.053,11.053,0,0,0,7.477-10.154V366.3a10.868,10.868,0,0,0-7.477-10.328A10.872,10.872,0,0,1,198.509,366.3Z" transform="translate(-165.778 -355.434)" fill="#fdb0a0"/>
                    </g>
                  </g>
                </g>
              </g>
            </g>
          </g>
        </g>
        <g id="Group_141" data-name="Group 141" transform="translate(87.478)">
          <g id="Group_140" data-name="Group 140">
            <g id="Group_139" data-name="Group 139">
              <g id="Group_138" data-name="Group 138">
                <g id="Group_137" data-name="Group 137">
                  <g id="Group_136" data-name="Group 136">
                    <g id="Group_135" data-name="Group 135">
                      <g id="Group_134" data-name="Group 134" transform="translate(0 22.581)">
                        <g id="Group_133" data-name="Group 133">
                          <path id="Path_539" data-name="Path 539" d="M299.738,445.56H256l2.714-14.167a10.333,10.333,0,0,1,6.98-7.891l12.175-3.922,12.175,3.922a10.333,10.333,0,0,1,6.98,7.891Z" transform="translate(-255.999 -419.58)" fill="#fc95bb"/>
                          <path id="Path_540" data-name="Path 540" d="M353.571,449.933h-8.933l-2.716-15.97c-.541-3.2-.473-5.939-2.845-7.637l4.8,1.546a10.343,10.343,0,0,1,6.978,7.891Z" transform="translate(-309.831 -423.951)" fill="#fc78a8"/>
                        </g>
                      </g>
                      <path id="Path_541" data-name="Path 541" d="M298.131,355.437A10.862,10.862,0,0,0,287.27,366.3v4.719a10.862,10.862,0,0,0,21.723,0V366.3A10.862,10.862,0,0,0,298.131,355.437Z" transform="translate(-276.262 -355.436)" fill="#fdb0a0"/>
                      <path id="Path_542" data-name="Path 542" d="M322.758,366.3v4.717A11.033,11.033,0,0,1,311.9,381.736a10.408,10.408,0,0,1-3.384-.566,11.053,11.053,0,0,0,7.477-10.154V366.3a10.868,10.868,0,0,0-7.477-10.328A10.872,10.872,0,0,1,322.758,366.3Z" transform="translate(-290.027 -355.434)" fill="#f69583"/>
                    </g>
                  </g>
                </g>
              </g>
            </g>
          </g>
        </g>
        <g id="Group_150" data-name="Group 150" transform="translate(131.217)">
          <g id="Group_149" data-name="Group 149">
            <g id="Group_148" data-name="Group 148">
              <g id="Group_147" data-name="Group 147">
                <g id="Group_146" data-name="Group 146">
                  <g id="Group_145" data-name="Group 145">
                    <g id="Group_144" data-name="Group 144">
                      <g id="Group_143" data-name="Group 143" transform="translate(0 22.581)">
                        <g id="Group_142" data-name="Group 142">
                          <path id="Path_543" data-name="Path 543" d="M423.988,445.56H380.249l2.714-14.167a10.333,10.333,0,0,1,6.98-7.891l12.175-3.922,12.175,3.922a10.332,10.332,0,0,1,6.98,7.891Z" transform="translate(-380.249 -419.58)" fill="#f3eae6"/>
                          <path id="Path_544" data-name="Path 544" d="M477.822,449.933h-8.933l-2.716-15.97c-.541-3.2-.473-5.939-2.845-7.637l4.8,1.546a10.344,10.344,0,0,1,6.978,7.891Z" transform="translate(-434.082 -423.951)" fill="#e0d3ce"/>
                        </g>
                      </g>
                      <path id="Path_545" data-name="Path 545" d="M422.381,355.437A10.862,10.862,0,0,0,411.52,366.3v4.719a10.862,10.862,0,0,0,21.723,0V366.3A10.862,10.862,0,0,0,422.381,355.437Z" transform="translate(-400.512 -355.436)" fill="#fdb0a0"/>
                      <path id="Path_546" data-name="Path 546" d="M447.008,366.3v4.717a11.033,11.033,0,0,1-10.861,10.721,10.407,10.407,0,0,1-3.384-.566,11.053,11.053,0,0,0,7.477-10.154V366.3a10.868,10.868,0,0,0-7.477-10.328A10.872,10.872,0,0,1,447.008,366.3Z" transform="translate(-414.277 -355.434)" fill="#f69583"/>
                    </g>
                  </g>
                </g>
              </g>
            </g>
          </g>
        </g>
      </g>
      <g id="Group_152" data-name="Group 152" transform="translate(107.587 23.22)">
        <path id="Path_547" data-name="Path 547" d="M337.774,84.6a23.605,23.605,0,0,0-11.942,2.681h-8.249a1.76,1.76,0,0,0-1.76,1.76v8.249A23.691,23.691,0,1,0,337.774,84.6Z" transform="translate(-313.122 -84.576)" fill="#fcb44d"/>
        <path id="Path_548" data-name="Path 548" d="M371.648,131.949a23.005,23.005,0,0,1-3.6-.394,23.7,23.7,0,0,0,.007-46.577,23.693,23.693,0,1,1,3.6,46.971Z" transform="translate(-348.709 -84.574)" fill="#fb9927"/>
      </g>
    </g>
    <g id="Group_154" data-name="Group 154" transform="translate(-0.002 11.118)">
      <path id="Path_549" data-name="Path 549" d="M180.189,180.391l-2.714-14.167a12.968,12.968,0,0,0-8.763-9.907l-2.067-.666a13.077,13.077,0,0,0,2.583-7.743V143.19a13.5,13.5,0,0,0-18.263-12.632,14.948,14.948,0,0,0-6.139-3.815l-.049-.016a13.077,13.077,0,0,0,2.583-7.743v-4.719a13.5,13.5,0,0,0-27,0v4.719a13.075,13.075,0,0,0,2.583,7.743l-.049.016a14.951,14.951,0,0,0-6.052,3.728V89.913h3.424a6.178,6.178,0,0,0,5.813-4.115,26.055,26.055,0,0,0,7.007,1.19q.427.013.851.013a26.294,26.294,0,0,0,23.256-38.61,2.64,2.64,0,1,0-4.663,2.477,21.032,21.032,0,0,1-19.28,30.84,21.05,21.05,0,0,1-17.981-30.8,2.64,2.64,0,0,0,.3-1.226V42.318h7.369a2.636,2.636,0,0,0,1.226-.3,20.96,20.96,0,0,1,20.791.751,2.64,2.64,0,0,0,2.785-4.486A26.238,26.238,0,0,0,122.3,37.037h-7.618a4.405,4.405,0,0,0-4.4,4.4v7.618c-.309.629-.59,1.27-.847,1.92a14.424,14.424,0,0,0-4.654-2.528L97.42,46.075v-1.69a14.993,14.993,0,0,0,7.7-12.895v-5.37a15,15,0,0,0-30,0V31.49a14.993,14.993,0,0,0,7.7,12.895v1.69l-7.365,2.373a14.4,14.4,0,0,0-9.727,11L63.341,71.886H59.976A6.18,6.18,0,0,0,53.8,78.059V83.74a6.18,6.18,0,0,0,6.173,6.173H63.4v14.356a2.64,2.64,0,0,0,5.28,0V89.913H94.971a2.64,2.64,0,0,0,0-5.28H59.976a.893.893,0,0,1-.892-.892V78.06a.893.893,0,0,1,.892-.892h53.457a26.6,26.6,0,0,0,7.721,6.517v.056a.894.894,0,0,1-.892.892H107.43a2.64,2.64,0,0,0,0,5.28h4.127V129.7a13.422,13.422,0,0,0-4.332.859,14.951,14.951,0,0,0-6.14-3.815l-.049-.016a13.077,13.077,0,0,0,2.583-7.743v-4.719a13.5,13.5,0,0,0-27,0v4.719a13.077,13.077,0,0,0,2.583,7.743l-.049.016a14.954,14.954,0,0,0-6.139,3.816,13.416,13.416,0,0,0-4.331-.859V116.73a2.64,2.64,0,1,0-5.28,0V130.47a14.952,14.952,0,0,0-6.053-3.728l-.049-.016a13.077,13.077,0,0,0,2.583-7.743v-4.719a13.5,13.5,0,0,0-27,0v4.719a13.077,13.077,0,0,0,2.583,7.743l-.049.016a14.941,14.941,0,0,0-6.139,3.816,13.5,13.5,0,0,0-18.265,12.631v4.719a13.077,13.077,0,0,0,2.583,7.743l-2.066.666a12.969,12.969,0,0,0-8.764,9.907L.045,180.391a2.64,2.64,0,1,0,5.186.993l2.714-14.167a7.69,7.69,0,0,1,5.2-5.874l5.117-1.649a13.18,13.18,0,0,0,12.5,0l5.117,1.649a7.69,7.69,0,0,1,5.2,5.874l2.714,14.167a2.639,2.639,0,0,0,5.183.009l2.717-14.176a7.689,7.689,0,0,1,5.2-5.874L62,159.695a13.18,13.18,0,0,0,12.5,0l5.117,1.649a7.69,7.69,0,0,1,5.2,5.874l2.714,14.167a2.64,2.64,0,0,0,5.183.009l2.717-14.176a7.69,7.69,0,0,1,5.2-5.875l5.116-1.649a13.18,13.18,0,0,0,12.5,0l5.117,1.649a7.689,7.689,0,0,1,5.2,5.874l2.714,14.167a2.64,2.64,0,0,0,5.183.013l2.718-14.18a7.69,7.69,0,0,1,5.2-5.875l5.116-1.648a13.18,13.18,0,0,0,12.5,0l5.117,1.649a7.689,7.689,0,0,1,5.2,5.874L175,181.385a2.641,2.641,0,0,0,5.187-.994ZM88.614,71.887l-7.7-19.652,2.2-.709a7.3,7.3,0,0,0,14,0l2.2.709-7.7,19.652ZM80.4,26.119a9.721,9.721,0,0,1,19.442,0V31.49a9.722,9.722,0,0,1-19.442,0Zm9.721,20.214a14.543,14.543,0,0,0,2.021-.145v3.275a2.021,2.021,0,1,1-4.042,0V46.188A14.535,14.535,0,0,0,90.118,46.333ZM70.911,60.438a9.117,9.117,0,0,1,5-6.5l7.031,17.95H68.717ZM97.294,71.887l7.028-17.942a9.16,9.16,0,0,1,3.532,3.007,26.415,26.415,0,0,0-.246,4.783,26.053,26.053,0,0,0,2.5,10.152H97.294Zm28.343,42.378a8.221,8.221,0,1,1,16.443,0v4.719a8.222,8.222,0,0,1-16.443,0Zm-43.74,0a8.221,8.221,0,1,1,16.442,0v4.719a8.222,8.222,0,0,1-16.442,0Zm-43.739,0a8.221,8.221,0,1,1,16.443,0v4.719a8.222,8.222,0,0,1-16.443,0Zm-21.87,33.644v-4.719a8.221,8.221,0,1,1,16.443,0v4.719a8.366,8.366,0,0,1-8.221,8.082A8.366,8.366,0,0,1,16.288,147.908Zm30.091,18.316a13.117,13.117,0,0,0-8.885-9.907l-2.066-.666a13.078,13.078,0,0,0,2.583-7.743v-4.719a13.458,13.458,0,0,0-4.135-9.71,9.709,9.709,0,0,1,3.155-1.711l3.1-1a13.18,13.18,0,0,0,12.5,0l3.1,1a9.711,9.711,0,0,1,3.154,1.711,13.46,13.46,0,0,0-4.135,9.71v4.719a13.077,13.077,0,0,0,2.583,7.743l-2.066.666A13.116,13.116,0,0,0,46.379,166.224Zm13.648-18.316v-4.719a8.221,8.221,0,1,1,16.443,0v4.719a8.222,8.222,0,0,1-16.443,0Zm30.091,18.316a13.116,13.116,0,0,0-8.885-9.907l-2.066-.666a13.078,13.078,0,0,0,2.583-7.743v-4.719a13.46,13.46,0,0,0-4.134-9.71,9.706,9.706,0,0,1,3.154-1.711l3.1-1a13.18,13.18,0,0,0,12.5,0l3.1,1a9.7,9.7,0,0,1,3.154,1.711,13.459,13.459,0,0,0-4.135,9.71v4.719a13.079,13.079,0,0,0,2.583,7.743L99,156.318a13.115,13.115,0,0,0-8.884,9.906Zm13.648-18.316v-4.719a8.221,8.221,0,1,1,16.443,0v4.719a8.222,8.222,0,0,1-16.443,0Zm30.092,18.316a13.118,13.118,0,0,0-8.886-9.907l-2.067-.666a13.077,13.077,0,0,0,2.583-7.743V143.19a13.459,13.459,0,0,0-4.134-9.709,9.71,9.71,0,0,1,3.155-1.712l3.1-1a13.18,13.18,0,0,0,12.5,0l3.1,1a9.706,9.706,0,0,1,3.153,1.711,13.461,13.461,0,0,0-4.135,9.71v4.719a13.077,13.077,0,0,0,2.583,7.743l-2.066.666a13.112,13.112,0,0,0-8.883,9.906Zm13.647-18.316v-4.719a8.221,8.221,0,1,1,16.443,0v4.719a8.222,8.222,0,0,1-16.443,0Z" transform="translate(0.002 -11.118)"/>
      <path id="Path_550" data-name="Path 550" d="M366.994,127.544v-6.61a2.638,2.638,0,0,0-1.534-4.786h-8.542a2.638,2.638,0,0,0-5.275,0H343.1a2.638,2.638,0,0,0-1.534,4.787v6.61h-.026a2.64,2.64,0,0,0,0,5.28h5.333a2.64,2.64,0,0,0,0-5.28h-.026v-6.115h4.794v13.828h-2.93a2.64,2.64,0,1,0,0,5.28H359.85a2.64,2.64,0,0,0,0-5.28h-2.93V121.429h4.794v6.115h-.026a2.64,2.64,0,1,0,0,5.28h5.333a2.64,2.64,0,1,0,0-5.28h-.026Z" transform="translate(-219.596 -77.497)"/>
    </g>
  </g>
</svg>
