<svg xmlns="http://www.w3.org/2000/svg" xmlns:xlink="http://www.w3.org/1999/xlink" width="373" height="341" viewBox="0 0 373 341">
  <defs>
    <clipPath id="clip-path">
      <rect id="Rectangle_1103" data-name="Rectangle 1103" width="373" height="341" transform="translate(1547)" fill="#fff" stroke="#707070" stroke-width="1"/>
    </clipPath>
  </defs>
  <g id="corner-pink-blob" transform="translate(-1547)" clip-path="url(#clip-path)">
    <path id="big-pink-blob" d="M197.5,0C306.576,0,395,75.888,395,169.5S384.344,358.7,275.268,358.7c-57.483,0-66.332,11.238-133.042-70.059C73.181,258.3,0,213.779,0,169.5,0,122.694-2.972,78.466,32.946,47.641,68.509,17.119,142.962,0,197.5,0Z" transform="translate(1588 -50)" fill="#fac7c2"/>
    <g id="small-pink-blob" transform="translate(1641 39.598)" fill="#fac7c2">
      <path d="M 182.0304260253906 217.7388610839844 C 176.340087890625 217.7388610839844 171.415283203125 216.9341278076172 166.9746246337891 215.2786560058594 C 163.0161895751953 213.8029632568359 159.501953125 211.6650543212891 156.2311248779297 208.7427825927734 C 150.0380859375 203.2096557617188 145.6389923095703 195.6772613525391 140.9815826416016 187.7025604248047 C 135.6465911865234 178.567626953125 130.1299591064453 169.1216888427734 121.3232192993164 161.5358581542969 C 112.666389465332 154.0793304443359 91.92048645019531 147.5073852539063 69.95645141601563 140.5495910644531 C 53.26438522338867 135.2618560791016 36.00398635864258 129.7940826416016 22.88078498840332 123.6063919067383 C 15.87035274505615 120.3009262084961 10.72845268249512 117.1256256103516 7.161319255828857 113.8990859985352 C 5.28238582611084 112.1995544433594 3.852452516555786 110.4782867431641 2.911252498626709 108.7831573486328 C 1.947985768318176 107.0482559204102 1.479719161987305 105.3525238037109 1.479719161987305 103.5990905761719 C 1.479719161987305 101.5540237426758 1.469552397727966 99.49002075195313 1.459752440452576 97.49402618408203 C 1.394652485847473 84.27312469482422 1.333219170570374 71.78545379638672 4.004118919372559 60.33935546875 C 5.422052383422852 54.26285552978516 7.489452362060547 49.00032424926758 10.32448577880859 44.25105667114258 C 13.48378562927246 38.95862197875977 17.53211975097656 34.39308929443359 22.70081901550293 30.29358863830566 C 28.24745178222656 25.89425659179688 35.48415374755859 21.78475570678711 44.20988464355469 18.0792236328125 C 52.36371994018555 14.61655616760254 61.66041946411133 11.56812286376953 71.84175109863281 9.018655776977539 C 81.50628662109375 6.598556041717529 91.61008453369141 4.713056087493896 101.8724822998047 3.414522886276245 C 111.9123153686523 2.144122838973999 121.5769882202148 1.499989628791809 130.5979461669922 1.499989628791809 C 139.3799896240234 1.499989628791809 148.1558532714844 2.20162296295166 156.6817932128906 3.585389614105225 C 164.9880828857422 4.933489799499512 173.1575927734375 6.944822788238525 180.96337890625 9.563423156738281 C 188.6234893798828 12.13318920135498 196.0105590820313 15.31322288513184 202.9193878173828 19.01525688171387 C 209.7572784423828 22.67925643920898 216.1859893798828 26.88602256774902 222.0268859863281 31.51869010925293 C 227.8614501953125 36.14635467529297 233.1571197509766 41.23675537109375 237.7667541503906 46.64849090576172 C 242.4143829345703 52.10485458374023 246.4050903320313 57.93585586547852 249.6279907226563 63.97945785522461 C 252.90625 70.12689208984375 255.423583984375 76.55828857421875 257.1100463867188 83.09498596191406 C 258.83935546875 89.79779052734375 259.7161865234375 96.69635772705078 259.7161865234375 103.5990905761719 C 259.7161865234375 121.0639572143555 259.032958984375 134.0203552246094 257.5008239746094 145.6092834472656 C 255.5505828857422 160.3607635498047 252.2240600585938 172.3326873779297 247.3311157226563 182.2091522216797 C 244.6174926757813 187.6866912841797 241.365478515625 192.5754852294922 237.6654510498047 196.7396850585938 C 233.7388458251953 201.1588897705078 229.1662902832031 204.9218597412109 224.0747222900391 207.9240570068359 C 218.6886596679688 211.0999603271484 212.5378875732422 213.5339202880859 205.7933197021484 215.1584167480469 C 198.6843566894531 216.8706512451172 190.6893920898438 217.7388610839844 182.0304260253906 217.7388610839844 Z" stroke="none"/>
      <path d="M 130.5979309082031 3 C 121.6396789550781 3 112.0383911132813 3.64013671875 102.060791015625 4.902679443359375 C 91.85743713378906 6.193740844726563 81.81289672851563 8.068099975585938 72.20611572265625 10.47370910644531 C 62.10035705566406 13.0042724609375 52.87832641601563 16.02767944335938 44.79618835449219 19.45988464355469 C 36.19442749023438 23.11277770996094 29.07408142089844 27.15316772460938 23.6329345703125 31.46881103515625 C 18.60896301269531 35.4534912109375 14.67704772949219 39.8861083984375 11.61247253417969 45.01992797851563 C 8.858001708984375 49.63424682617188 6.847076416015625 54.75674438476563 5.464859008789063 60.68020629882813 C 2.83404541015625 71.95449829101563 2.895111083984375 84.35649108886719 2.959716796875 97.48664093017578 C 2.96954345703125 99.4844970703125 2.979705810546875 101.5503158569336 2.979705810546875 103.5990982055664 C 2.979705810546875 105.0911407470703 3.38629150390625 106.5486755371094 4.222640991210938 108.0550308227539 C 5.083755493164063 109.6058502197266 6.4110107421875 111.1978149414063 8.16754150390625 112.7866744995117 C 11.62358093261719 115.912712097168 16.64556884765625 119.0080642700195 23.5205078125 122.2496719360352 C 36.55279541015625 128.3945007324219 53.76446533203125 133.8468170166016 70.40946960449219 139.11962890625 C 81.51542663574219 142.6378173828125 92.00550842285156 145.9608459472656 101.0154724121094 149.3936462402344 C 111.4256134033203 153.3598480224609 118.1896057128906 156.8569946289063 122.3021545410156 160.3993225097656 C 131.298828125 168.1487731933594 136.8797302246094 177.7047424316406 142.27685546875 186.9460601806641 C 146.8728637695313 194.8156433105469 151.2139587402344 202.248779296875 157.2304992675781 207.6241760253906 C 163.8087463378906 213.5014953613281 171.6891174316406 216.2388458251953 182.0303955078125 216.2388458251953 C 190.5711822509766 216.2388458251953 198.447998046875 215.3847045898438 205.4420471191406 213.7001342773438 C 212.0421447753906 212.1104278564453 218.0547485351563 209.7323455810547 223.3128356933594 206.6319580078125 C 228.2697143554688 203.7091369628906 232.7213592529297 200.0457153320313 236.5441131591797 195.7433471679688 C 240.1555480957031 191.6788940429688 243.3326110839844 186.9012756347656 245.9869995117188 181.5432739257813 C 250.8056793212891 171.8167114257813 254.0854644775391 159.9982757568359 256.0137634277344 145.4127197265625 C 257.5369262695313 133.8914489746094 258.2161865234375 120.9956741333008 258.2161865234375 103.5990982055664 C 258.2161865234375 96.82266998291016 257.3553466796875 90.0501708984375 255.6576080322266 83.46971130371094 C 254.0007934570313 77.04795837402344 251.5268249511719 70.72795104980469 248.3044281005859 64.68528747558594 C 245.1322174072266 58.73670959472656 241.2026062011719 52.99552917480469 236.6248321533203 47.62117004394531 C 232.0782165527344 42.28341674804688 226.8531494140625 37.26116943359375 221.0947570800781 32.69392395019531 C 215.3236846923828 28.11663818359375 208.9702453613281 23.95927429199219 202.2109375 20.33738708496094 C 195.3760375976563 16.67503356933594 188.0668334960938 13.52859497070313 180.4862976074219 10.98553466796875 C 172.7574768066406 8.392745971679688 164.6676025390625 6.401138305664063 156.4414672851563 5.065994262695313 C 147.9947509765625 3.695098876953125 139.2997131347656 3 130.5979309082031 3 M 130.5979309082031 0 C 202.7363891601563 0 261.2161865234375 46.38288879394531 261.2161865234375 103.5990982055664 C 261.2161865234375 160.8152770996094 254.1688690185547 219.2388458251953 182.0303955078125 219.2388458251953 C 144.013427734375 219.2388458251953 144.3451232910156 183.3458862304688 120.3442535400391 162.6723480224609 C 99.05104064941406 144.3314514160156 -0.020294189453125 130.662353515625 -0.020294189453125 103.5990982055664 C -0.020294189453125 74.99099731445313 -1.985748291015625 47.95892333984375 21.7686767578125 29.11834716796875 C 45.28875732421875 10.46342468261719 94.52871704101563 0 130.5979309082031 0 Z" stroke="none" fill="#fff"/>
    </g>
  </g>
</svg>
