<svg xmlns="http://www.w3.org/2000/svg" width="182" height="182" viewBox="0 0 182 182">
  <g id="economics-icon" transform="translate(-16 -16)">
    <path id="Path_551" data-name="Path 551" d="M187.533,93.756A69.767,69.767,0,1,1,48,93.756q0-3.066.262-6.067a69.768,69.768,0,0,1,139.272,6.067Z" transform="translate(-19.867 -4.957)" fill="#9ce6ed"/>
    <path id="Path_552" data-name="Path 552" d="M296.8,122.511A69.718,69.718,0,0,1,263.653,181.9l-15.387-16.926V140.711H236.133L224,122.511l12.133-9.1H251.3l9.1-12.133-6.067-15.167L273.311,70.3A69.6,69.6,0,0,1,296.8,122.511Z" transform="translate(-129.133 -33.711)" fill="#02c26a"/>
    <rect id="Rectangle_1095" data-name="Rectangle 1095" width="24" height="30" transform="translate(122 162)" fill="#4367e0"/>
    <rect id="Rectangle_1096" data-name="Rectangle 1096" width="25" height="55" transform="translate(146 137)" fill="#4976f2"/>
    <rect id="Rectangle_1097" data-name="Rectangle 1097" width="24" height="85" transform="translate(171 107)" fill="#548aff"/>
    <path id="Path_553" data-name="Path 553" d="M172.12,29.7l-21.6,21.6v18.2l-18.2,12.133L120.19,69.494H105.023V57.36L90.99,48.939A69.826,69.826,0,0,1,172.12,29.7Z" transform="translate(-46.556 -4.961)" fill="#02c26a"/>
    <path id="Path_554" data-name="Path 554" d="M108.667,219.3l-12.133,9.1v36.142A69.8,69.8,0,0,1,48,198.067Q48,195,48.262,192H66.2l9.1,12.133H99.567Z" transform="translate(-19.867 -109.267)" fill="#02c26a"/>
    <path id="Path_555" data-name="Path 555" d="M54.333,262.067c0-3.351-6.79-6.067-15.167-6.067S24,258.716,24,262.067V337.9c0,3.351,6.79,6.067,15.167,6.067s15.167-2.716,15.167-6.067Z" transform="translate(-4.967 -149)" fill="#ffc431"/>
    <ellipse id="Ellipse_9" data-name="Ellipse 9" cx="15" cy="6" rx="15" ry="6" transform="translate(19 107)" fill="#ffd873"/>
    <path id="Path_556" data-name="Path 556" d="M134.333,342.067c0-3.351-6.79-6.067-15.167-6.067S104,338.716,104,342.067v45.5c0,3.351,6.79,6.067,15.167,6.067s15.167-2.716,15.167-6.067Z" transform="translate(-54.633 -198.667)" fill="#ffc431"/>
    <ellipse id="Ellipse_10" data-name="Ellipse 10" cx="15.5" cy="6" rx="15.5" ry="6" transform="translate(49 137)" fill="#ffd873"/>
    <path id="Path_557" data-name="Path 557" d="M214.333,382.067c0-3.351-6.79-6.067-15.167-6.067S184,378.716,184,382.067V412.4c0,3.351,6.79,6.067,15.167,6.067s15.167-2.716,15.167-6.067Z" transform="translate(-104.3 -223.5)" fill="#ffc431"/>
    <ellipse id="Ellipse_11" data-name="Ellipse 11" cx="15" cy="6" rx="15" ry="6" transform="translate(80 153)" fill="#ffd873"/>
    <path id="Path_558" data-name="Path 558" d="M194.967,248H170.7a3.033,3.033,0,0,0-3.033,3.033v27.3H146.433a3.033,3.033,0,0,0-3.033,3.033V302.6H122.167a3.033,3.033,0,0,0-3.033,3.033v27.3h-6.067V302.6c0-1.706-.825-4.9-6.349-7.106A32.913,32.913,0,0,0,94.867,293.5a32.914,32.914,0,0,0-11.851,1.994c-.1.039-.189.078-.282.118v-8.178c0-1.706-.825-4.9-6.349-7.106a32.912,32.912,0,0,0-11.851-1.994,32.914,32.914,0,0,0-11.851,1.994c-.1.039-.189.078-.282.118V257.1c0-1.705-.825-4.9-6.349-7.106A32.913,32.913,0,0,0,34.2,248a32.915,32.915,0,0,0-11.851,1.994C16.825,252.2,16,255.395,16,257.1v75.833c0,1.705.825,4.9,6.349,7.106A32.913,32.913,0,0,0,34.2,342.033a32.915,32.915,0,0,0,11.851-1.994,14.612,14.612,0,0,0,3.316-1.8,14.612,14.612,0,0,0,3.316,1.8,32.912,32.912,0,0,0,11.851,1.994,32.914,32.914,0,0,0,11.851-1.994,14.611,14.611,0,0,0,3.316-1.8,14.612,14.612,0,0,0,3.316,1.8,32.913,32.913,0,0,0,11.851,1.994,32.914,32.914,0,0,0,11.851-1.994A16.5,16.5,0,0,0,108.875,339h86.092A3.033,3.033,0,0,0,198,335.967V251.033A3.033,3.033,0,0,0,194.967,248Zm-172.9,61.588c.094.039.186.079.282.118A32.912,32.912,0,0,0,34.2,311.7a32.914,32.914,0,0,0,11.851-1.994c.1-.039.189-.078.282-.118v8.063c-.527.939-4.724,3.148-12.133,3.148s-11.606-2.209-12.133-3.148Zm0-15.167c.094.039.186.079.282.118A32.911,32.911,0,0,0,34.2,296.533a32.915,32.915,0,0,0,11.851-1.994c.1-.039.189-.078.282-.118v8.063c-.527.939-4.724,3.148-12.133,3.148s-11.606-2.209-12.133-3.148Zm0-15.167c.094.039.186.079.282.118A32.911,32.911,0,0,0,34.2,281.367a32.915,32.915,0,0,0,11.851-1.994c.1-.039.189-.078.282-.118v8.063c-.527.939-4.724,3.148-12.133,3.148s-11.606-2.209-12.133-3.148Zm0-15.167c.094.039.186.079.282.118A32.912,32.912,0,0,0,34.2,266.2a32.915,32.915,0,0,0,11.851-1.994c.1-.039.189-.078.282-.118v8.063c-.527.939-4.724,3.148-12.133,3.148s-11.606-2.209-12.133-3.148Zm42.467,41.545c-7.409,0-11.606-2.209-12.133-3.148v-8.063c.094.039.186.079.282.118a32.91,32.91,0,0,0,11.851,1.994,32.914,32.914,0,0,0,11.851-1.994c.1-.039.189-.078.282-.118v8.063C76.14,303.424,71.943,305.633,64.533,305.633ZM52.4,309.589c.094.039.186.079.282.118A32.913,32.913,0,0,0,64.533,311.7a32.914,32.914,0,0,0,11.851-1.994c.1-.039.189-.078.282-.118v8.063c-.527.939-4.724,3.148-12.133,3.148s-11.606-2.209-12.133-3.148Zm30.333,0c.094.039.186.079.282.118A32.913,32.913,0,0,0,94.867,311.7a32.914,32.914,0,0,0,11.851-1.994c.1-.039.189-.078.282-.118v8.063c-.527.939-4.724,3.148-12.133,3.148s-11.606-2.209-12.133-3.148Zm12.133-10.022c7.138,0,11.287,2.048,12.053,3.038-.789.994-4.942,3.029-12.053,3.029S83.6,303.6,82.814,302.6C83.58,301.614,87.729,299.567,94.867,299.567ZM64.533,284.4c7.138,0,11.287,2.048,12.053,3.038-.789.994-4.942,3.029-12.053,3.029s-11.276-2.041-12.056-3.033C53.257,286.441,57.412,284.4,64.533,284.4ZM34.2,254.067c7.138,0,11.287,2.048,12.053,3.038-.789.994-4.942,3.029-12.053,3.029S22.936,258.1,22.147,257.1C22.913,256.114,27.062,254.067,34.2,254.067Zm0,81.9c-7.4,0-11.594-2.2-12.133-3.144v-8.068c.094.039.186.079.282.118A32.913,32.913,0,0,0,34.2,326.867a32.914,32.914,0,0,0,11.851-1.994c.1-.039.189-.078.282-.118v8.067C45.794,333.764,41.6,335.967,34.2,335.967Zm30.333,0c-7.409,0-11.606-2.209-12.133-3.148v-8.063c.094.039.186.079.282.118a32.912,32.912,0,0,0,11.851,1.994,32.914,32.914,0,0,0,11.851-1.994c.1-.039.189-.078.282-.118v8.067C76.128,333.764,71.93,335.967,64.533,335.967Zm30.333,0c-7.4,0-11.594-2.2-12.133-3.144v-8.068c.094.039.186.079.282.118a32.912,32.912,0,0,0,11.851,1.994,32.914,32.914,0,0,0,11.851-1.994c.1-.039.189-.078.282-.118v8.067C106.461,333.764,102.263,335.967,94.867,335.967Zm30.333-27.3h18.2v24.267H125.2ZM149.467,284.4h18.2v48.533h-18.2Zm24.267,48.533V254.067h18.2v78.867Z" transform="translate(0 -144.033)"/>
    <rect id="Rectangle_1098" data-name="Rectangle 1098" width="6" height="6" transform="translate(95 137)"/>
    <path id="Path_559" data-name="Path 559" d="M256,226.733V232.8h15.167a3.034,3.034,0,0,0,2.145-.888l61.555-61.555v4.81h6.067V163.033A3.033,3.033,0,0,0,337.9,160H325.767v6.067h4.81L269.91,226.733Z" transform="translate(-149 -89.4)"/>
    <path id="Path_560" data-name="Path 560" d="M162.139,35.269A72.8,72.8,0,0,0,40,88.8a73.737,73.737,0,0,0,.613,9.491l6.016-.783a67.653,67.653,0,0,1-.563-8.708c0-1.017.027-2.027.072-3.033H59.717l8.19,10.92A3.033,3.033,0,0,0,70.333,97.9H92.883l6.809,11.348-9.945,7.459a3.034,3.034,0,0,0-1.213,2.427v9.1H94.6V120.65l10.92-8.19a3.033,3.033,0,0,0,.781-3.988L97.2,93.306a3.034,3.034,0,0,0-2.6-1.473H71.85l-8.19-10.92A3.033,3.033,0,0,0,61.233,79.7H46.69A66.416,66.416,0,0,1,60.064,47.956l10.269,6.161V64.533a3.033,3.033,0,0,0,3.033,3.033h13.91L98.522,78.812a3.033,3.033,0,0,0,3.827.379l18.2-12.133a3.033,3.033,0,0,0,1.351-2.524V47.59l19.227-19.226a66.58,66.58,0,0,1,13.223,8.214L138.158,50.07a3.033,3.033,0,0,0-.874,3.457l5.433,13.584-7.167,9.556H121.9a3.034,3.034,0,0,0-1.82.606l-12.133,9.1a3.033,3.033,0,0,0-.7,4.109l12.133,18.2a3.033,3.033,0,0,0,2.524,1.351H131v18.2h6.067V107a3.033,3.033,0,0,0-3.033-3.033h-10.51L113.882,89.5l9.029-6.772h14.155a3.033,3.033,0,0,0,2.427-1.213l9.1-12.133a3.033,3.033,0,0,0,.39-2.946l-5.248-13.121,15.237-12.7a66.487,66.487,0,0,1,20.312,42.372l6.044-.521a72.562,72.562,0,0,0-23.189-47.2Zm-45.418,8.919a3.034,3.034,0,0,0-.888,2.145V62.91l-14.78,9.854L90.678,62.388a3.033,3.033,0,0,0-2.145-.888H76.4V52.4a3.034,3.034,0,0,0-1.473-2.6L64.055,43.275a66.7,66.7,0,0,1,70.985-17.4Z" transform="translate(-14.9 0)"/>
  </g>
</svg>
