<svg xmlns="http://www.w3.org/2000/svg" width="209.071" height="175.992" viewBox="0 0 209.071 175.992">
  <g id="english-icon" transform="translate(0.001)">
    <path id="Path_561" data-name="Path 561" d="M166.195,0H42.876A42.924,42.924,0,0,0,0,42.876v68.987a42.924,42.924,0,0,0,42.876,42.876h6.363l14.912,18.919a6.126,6.126,0,0,0,9.622,0l14.912-18.919h77.51a42.924,42.924,0,0,0,42.876-42.876V42.876A42.924,42.924,0,0,0,166.195,0Zm0,0" transform="translate(0)" fill="#6787f5"/>
    <path id="Path_562" data-name="Path 562" d="M317.66,0H256V154.739h61.66a42.924,42.924,0,0,0,42.876-42.876V42.876A42.924,42.924,0,0,0,317.66,0Zm0,0" transform="translate(-151.465)" fill="#38478a"/>
    <path id="Path_563" data-name="Path 563" d="M199.758,387.974l7.116-9.028Zm0,0" transform="translate(-118.189 -224.206)" fill="#fff"/>
    <path id="Path_564" data-name="Path 564" d="M209.071,50.33h-51.5l38.336-38.336A42.729,42.729,0,0,0,166.2,0H155.928L131.585,24.343V0h-54.1V24.343L53.146,0H42.876A42.729,42.729,0,0,0,13.165,11.994L51.5,50.33H0v54.1H51.5l-36.9,36.9-1.431,1.431a42.726,42.726,0,0,0,29.7,11.985h6.363l1.729,2.193,25.863-25.864-.42,23.671h55.172V130.481l24.178,24.258H166.2a42.722,42.722,0,0,0,29.6-11.888l-1.442-1.448L157.5,104.427h51.567Zm0,0" transform="translate(-0.001 0)" fill="#fff"/>
    <path id="Path_565" data-name="Path 565" d="M360.535,50.33h-51.5l38.336-38.336A42.73,42.73,0,0,0,317.66,0H307.392L283.049,24.343V0H256V154.739h27.048V130.481l24.178,24.258H317.66a42.722,42.722,0,0,0,29.6-11.888l-1.442-1.448-36.853-36.976h51.567Zm0,0" transform="translate(-151.465 0)" fill="#c7d3ed"/>
    <path id="Path_566" data-name="Path 566" d="M119.333,62.58V0h-29.6V62.58H0v29.6H89.737l-1.053,62.562h30.648V92.177H209.07V62.58Zm0,0" fill="#ff337a"/>
    <path id="Path_567" data-name="Path 567" d="M270.8,62.58V0H256V154.739h14.8V92.177h89.738V62.58Zm0,0" transform="translate(-151.465)" fill="#d1005b"/>
    <path id="Path_568" data-name="Path 568" d="M115.264,55.137V46.476L70.014,1.226A42.536,42.536,0,0,0,56.949,5.485L106.6,55.137Zm0,0" transform="translate(-33.695 -0.725)" fill="#ff337a"/>
    <path id="Path_569" data-name="Path 569" d="M370.557,5.485a42.536,42.536,0,0,0-13.065-4.259l-45.25,45.25v8.661H320.9Zm0,0" transform="translate(-184.741 -0.726)" fill="#d1005b"/>
    <path id="Path_570" data-name="Path 570" d="M56.977,295.377a42.594,42.594,0,0,0,13.069,4.256L115.28,254.4v-8.661h-8.661Zm0,0" transform="translate(-33.711 -145.391)" fill="#ff337a"/>
    <path id="Path_571" data-name="Path 571" d="M312.242,245.734v8.687l45.08,45.233a42.582,42.582,0,0,0,13.1-4.213l-49.54-49.707Zm0,0" transform="translate(-184.741 -145.391)" fill="#d1005b"/>
  </g>
</svg>
