<svg xmlns="http://www.w3.org/2000/svg" width="148.805" height="167.318" viewBox="0 0 148.805 167.318">
  <g id="geography-icon" transform="translate(-40.079 -10.343)">
    <path id="Path_410" data-name="Path 410" d="M240,296h11.025v11.025H240Z" transform="translate(-131.045 -187.243)" fill="#fa9f0c"/>
    <path id="Path_411" data-name="Path 411" d="M122.418,371.025a18.35,18.35,0,0,0,3.676,11.025H51.678a18.375,18.375,0,0,1,0-22.049h74.416a18.387,18.387,0,0,0-3.676,11.025Z" transform="translate(-5.195 -229.193)" fill="#92563a"/>
    <path id="Path_412" data-name="Path 412" d="M321.879,360h-54.2a18.375,18.375,0,0,0,0,22.049h54.2A18.374,18.374,0,0,1,321.879,360Z" transform="translate(-146.776 -229.193)" fill="#ead7bc"/>
    <path id="Path_413" data-name="Path 413" d="M187.025,328H220.1a11.025,11.025,0,0,1,11.025,11.025H176A11.025,11.025,0,0,1,187.025,328Z" transform="translate(-89.094 -208.218)" fill="#ffb531"/>
    <path id="Path_414" data-name="Path 414" d="M277.781,328H264a11.025,11.025,0,0,1,11.025,11.025h13.781A11.025,11.025,0,0,0,277.781,328Z" transform="translate(-146.776 -208.218)" fill="#ffa912"/>
    <path id="Path_415" data-name="Path 415" d="M210.685,65.326a41.652,41.652,0,0,1-.827,8.268,41.194,41.194,0,0,1-9.4,18.949,41.356,41.356,0,0,1-71.632-35.485,41.346,41.346,0,0,1,81.858,8.268Z" transform="translate(-57.631 -8.936)" fill="#348fd9"/>
    <path id="Path_416" data-name="Path 416" d="M213.411,76.912a41.651,41.651,0,0,1-.827,8.268,41.194,41.194,0,0,1-9.4,18.949,41.347,41.347,0,0,1-71.026-16.4,41.252,41.252,0,0,0,21.408,5.95q1.943,0,3.838-.179A41.448,41.448,0,0,0,193.664,41.65a41.318,41.318,0,0,1,19.748,35.262Z" transform="translate(-60.358 -20.521)" fill="#3086cd"/>
    <g id="Group_69" data-name="Group 69" transform="translate(71.196 17.401)">
      <path id="Path_417" data-name="Path 417" d="M227.562,165.781l-11.025,13.781H205.512v-8.268l-3.638-5.457L200,163.025V152h19.293v13.781Z" transform="translate(-176.021 -110.255)" fill="#7eb457"/>
      <path id="Path_418" data-name="Path 418" d="M170.915,58.11H159.891l-5.512,8.268v8.268H143.354L140.6,63.622H130.4A41.434,41.434,0,0,1,154.379,33.99v13.1H165.4Z" transform="translate(-130.4 -32.901)" fill="#7eb457"/>
      <path id="Path_419" data-name="Path 419" d="M315.562,69.819a41.652,41.652,0,0,1-.827,8.268h-10.2l-8.268-5.512V61.551l-1.492-2.487L288,47.77V30.83A41.37,41.37,0,0,1,315.562,69.819Z" transform="translate(-233.704 -30.83)" fill="#7eb457"/>
    </g>
    <path id="Path_420" data-name="Path 420" d="M222.859,181.3h8.268L220.1,195.083H209.078v-8.268l-3.638-5.457a41.115,41.115,0,0,0,17.419-5.678Z" transform="translate(-108.391 -108.375)" fill="#79ad54"/>
    <path id="Path_421" data-name="Path 421" d="M328.455,76.912a41.652,41.652,0,0,1-.827,8.268h-10.2l-8.268-5.512V68.643l-1.492-2.487a41.633,41.633,0,0,0,1.037-24.506,41.318,41.318,0,0,1,19.748,35.262Z" transform="translate(-175.401 -20.521)" fill="#79ad54"/>
    <path id="Path_422" data-name="Path 422" d="M157.249,435.09a18.35,18.35,0,0,0,3.676,11.025H86.508a18.375,18.375,0,0,1,0-22.049h74.416a18.387,18.387,0,0,0-3.676,11.025Z" transform="translate(-28.025 -271.187)" fill="#92563a"/>
    <path id="Path_423" data-name="Path 423" d="M162.535,424.065a18.284,18.284,0,0,0-2.828,5.512H85.29a18.283,18.283,0,0,1,2.828-5.512Z" transform="translate(-29.635 -271.187)" fill="#875036"/>
    <path id="Path_424" data-name="Path 424" d="M356.713,424.065h-54.2a18.375,18.375,0,0,0,0,22.049h54.2a18.374,18.374,0,0,1,0-22.049Z" transform="translate(-169.609 -271.187)" fill="#dfcdb3"/>
    <path id="Path_425" data-name="Path 425" d="M177.308,132.46a2.756,2.756,0,0,0-2.2-4.41H144.51A13.8,13.8,0,0,0,131,117.026h-8.268v-6.646a54.775,54.775,0,0,0,25.956-13.111l5.168,5.168,3.9-3.9-5.171-5.171a55.466,55.466,0,0,0,4.077-5.064l-4.491-3.2a49.9,49.9,0,0,1-3.489,4.356l-3.92-3.92A44.073,44.073,0,0,0,82.555,23.337l-3.92-3.92a49.87,49.87,0,0,1,4.356-3.489l-3.2-4.491a55.48,55.48,0,0,0-5.063,4.077l-5.171-5.171-3.9,3.9,5.168,5.168a55.093,55.093,0,0,0,35.367,91.8v5.814H97.931A13.8,13.8,0,0,0,84.15,130.807a2.756,2.756,0,0,0,2.756,2.756h9.963a21.344,21.344,0,0,0,0,16.537h-32.4a15.724,15.724,0,0,1,0-16.537H78.638V128.05H46.483a2.756,2.756,0,0,0-2.2,1.1,21.239,21.239,0,0,0,0,25.357,2.756,2.756,0,0,0,2.2,1.1h6.288A21.262,21.262,0,0,0,55.3,176.559a2.756,2.756,0,0,0,2.2,1.1h128.62a2.756,2.756,0,0,0,2.2-4.41,15.7,15.7,0,0,1,0-18.742,2.756,2.756,0,0,0-2.2-4.41h-9.573a15.71,15.71,0,0,1,.753-17.639Zm-6.942,1.1a21.189,21.189,0,0,0-1.481,5.512H120.245a15.543,15.543,0,0,1,2.105-5.512Zm-43.179,38.586h-13.1a15.724,15.724,0,0,1,0-16.537h13.1A21.344,21.344,0,0,0,127.187,172.149ZM75.5,155.612h32.4a21.344,21.344,0,0,0,0,16.537H75.5A15.724,15.724,0,0,1,75.5,155.612ZM150.3,56.39a38.7,38.7,0,0,1-.394,5.5l-7.04.009-6.347-4.231v-9.55a2.759,2.759,0,0,0-.393-1.418l-7.876-13.126V21.532A38.635,38.635,0,0,1,150.3,56.39ZM122.736,19.412V34.341a2.759,2.759,0,0,0,.393,1.418L131,48.885V59.147a2.756,2.756,0,0,0,1.227,2.293l8.269,5.512a2.756,2.756,0,0,0,1.529.463h6.661A38.586,38.586,0,0,1,73.521,50.878h5.721l2.234,8.937A2.756,2.756,0,0,0,84.15,61.9h8.268v8.268a2.756,2.756,0,0,0,.463,1.529l5.049,7.574v7.434a2.756,2.756,0,0,0,2.756,2.756h11.025a2.756,2.756,0,0,0,2.152-1.034L124.888,74.65a2.756,2.756,0,0,0-2.152-4.479h-5.512V59.147a2.756,2.756,0,0,0-2.756-2.756H97.931V51.713l4.231-6.347h9.55a2.756,2.756,0,0,0,2.465-3.989l-5.512-11.025a2.756,2.756,0,0,0-2.465-1.523H97.931V20.35a38.586,38.586,0,0,1,24.805-.938Zm-8.268,56.272H117l-6.615,8.268h-6.944V78.44a2.756,2.756,0,0,0-.463-1.529l-5.049-7.574V61.9h13.781V72.927A2.756,2.756,0,0,0,114.468,75.683Zm-22.049-52.7v8.6a2.756,2.756,0,0,0,2.756,2.756H104.5l2.756,5.512h-6.565a2.756,2.756,0,0,0-2.293,1.227l-5.512,8.268a2.756,2.756,0,0,0-.463,1.529V56.39H86.3l-2.234-8.937a2.756,2.756,0,0,0-2.674-2.088H74.733A38.764,38.764,0,0,1,92.418,22.984Zm-17.681.33,3.92,3.92a44.073,44.073,0,0,0,62.21,62.21l3.92,3.92a49.61,49.61,0,0,1-70.05-70.05Zm36.974,88.173q2.76,0,5.512-.276v5.814h-5.512Zm-13.781,11.05H131a8.283,8.283,0,0,1,7.8,5.512H90.135a8.283,8.283,0,0,1,7.8-5.512Zm5.127,11.025h13.1a21.344,21.344,0,0,0,0,16.537h-13.1a15.724,15.724,0,0,1,0-16.537Zm-55.123,0H58.283a21.344,21.344,0,0,0,0,16.537H47.933a15.725,15.725,0,0,1,0-16.537Zm11.025,22.049h10.35a21.344,21.344,0,0,0,0,16.537H58.958a15.725,15.725,0,0,1,0-16.537Zm74.416,16.537a15.543,15.543,0,0,1-2.105-5.512h48.638a21.188,21.188,0,0,0,1.481,5.512Zm46.532-11.025H131.27a15.543,15.543,0,0,1,2.105-5.512H181.39A21.187,21.187,0,0,0,179.908,161.124ZM122.351,150.1a15.543,15.543,0,0,1-2.105-5.512h48.638a21.188,21.188,0,0,0,1.481,5.512Z" transform="translate(0 0)"/>
  </g>
</svg>
