<svg xmlns="http://www.w3.org/2000/svg" width="169.891" height="169.587" viewBox="0 0 169.891 169.587">
  <g id="history-icon" transform="translate(-0.001 -0.458)">
    <g id="Group_80" data-name="Group 80" transform="translate(2.49 2.945)">
      <path id="Path_426" data-name="Path 426" d="M172.416,43.489,91.286,8.231a3.318,3.318,0,0,0-2.652,0L7.5,43.489Z" transform="translate(-7.503 -7.954)" fill="#c7c2c9"/>
      <path id="Path_427" data-name="Path 427" d="M239.078,8.23a3.318,3.318,0,0,0-2.652,0l-7.738,3.363,73.27,31.9h18.25Z" transform="translate(-155.295 -7.954)" fill="#a199a4"/>
      <path id="Path_428" data-name="Path 428" d="M53.5,444.546V432.365a2.655,2.655,0,0,1,2.655-2.654H81.044a2.655,2.655,0,0,1,2.655,2.654v12.182H53.5Z" transform="translate(-38.239 -289.765)" fill="#8b808e"/>
      <path id="Path_429" data-name="Path 429" d="M210.5,444.546V432.365a2.655,2.655,0,0,1,2.655-2.654h24.886a2.655,2.655,0,0,1,2.655,2.654v12.182H210.5Z" transform="translate(-143.144 -289.765)" fill="#8b808e"/>
      <path id="Path_430" data-name="Path 430" d="M367.5,444.546V432.365a2.655,2.655,0,0,1,2.655-2.654h24.886a2.655,2.655,0,0,1,2.655,2.654v12.182H367.5Z" transform="translate(-248.049 -289.765)" fill="#8b808e"/>
      <g id="Group_70" data-name="Group 70" transform="translate(0 35.535)">
        <path id="Path_431" data-name="Path 431" d="M430.457,429.71H420.5a2.655,2.655,0,0,1,2.655,2.654v12.182h9.954V432.365A2.654,2.654,0,0,0,430.457,429.71Z" transform="translate(-283.463 -325.299)" fill="#766d78"/>
        <path id="Path_432" data-name="Path 432" d="M273.457,429.71H263.5a2.655,2.655,0,0,1,2.655,2.654v12.182h9.954V432.365A2.654,2.654,0,0,0,273.457,429.71Z" transform="translate(-178.558 -325.299)" fill="#766d78"/>
        <path id="Path_433" data-name="Path 433" d="M116.457,429.71H106.5a2.655,2.655,0,0,1,2.655,2.654v12.182h9.954V432.365A2.654,2.654,0,0,0,116.457,429.71Z" transform="translate(-73.653 -325.299)" fill="#766d78"/>
        <path id="Path_434" data-name="Path 434" d="M172.416,115.045v8.17a6.636,6.636,0,0,1-6.636,6.636H14.139A6.636,6.636,0,0,1,7.5,123.215v-8.17Z" transform="translate(-7.503 -115.045)" fill="#766d78"/>
      </g>
      <path id="Path_435" data-name="Path 435" d="M461.139,115.045v8.17a6.636,6.636,0,0,1-6.636,6.636h9.954a6.636,6.636,0,0,0,6.636-6.636v-8.17Z" transform="translate(-306.181 -79.51)" fill="#655e67"/>
      <path id="Path_436" data-name="Path 436" d="M165.779,459.423H14.139A6.636,6.636,0,0,0,7.5,466.059v6.511a1.659,1.659,0,0,0,1.659,1.659H170.756a1.659,1.659,0,0,0,1.659-1.659v-6.511A6.636,6.636,0,0,0,165.779,459.423Z" transform="translate(-7.503 -309.618)" fill="#766d78"/>
      <path id="Path_437" data-name="Path 437" d="M464.457,459.423H454.5a6.636,6.636,0,0,1,6.636,6.636v6.511a1.659,1.659,0,0,1-1.659,1.659h9.955a1.659,1.659,0,0,0,1.659-1.659v-6.511A6.636,6.636,0,0,0,464.457,459.423Z" transform="translate(-306.181 -309.618)" fill="#655e67"/>
      <g id="Group_73" data-name="Group 73" transform="translate(114.145 50.34)">
        <path id="Path_438" data-name="Path 438" d="M386.5,181.315h17.586v82.42H386.5Z" transform="translate(-374.889 -174.131)" fill="#b0aab3"/>
        <path id="Path_439" data-name="Path 439" d="M409.5,429.7h9.954" transform="translate(-390.258 -340.101)" fill="#a199a4"/>
        <g id="Group_72" data-name="Group 72">
          <path id="Path_440" data-name="Path 440" d="M365.3,168a6.968,6.968,0,1,1-6.832-8.332h26.877A6.968,6.968,0,1,1,378.516,168Z" transform="translate(-351.503 -159.665)" fill="#b0aab3"/>
          <g id="Group_71" data-name="Group 71" transform="translate(22.232)">
            <path id="Path_441" data-name="Path 441" d="M430.117,159.665H418.5a6.966,6.966,0,0,1,5.809,10.813,6.966,6.966,0,1,0,5.8-10.813Z" transform="translate(-418.503 -159.665)" fill="#a199a4"/>
          </g>
          <path id="Path_442" data-name="Path 442" d="M419.457,254.464V167.44H409.5v87.024" transform="translate(-390.258 -164.86)" fill="#a199a4"/>
        </g>
      </g>
      <circle id="Ellipse_8" data-name="Ellipse 8" cx="7.466" cy="7.466" r="7.466" transform="translate(74.99 11.312)" fill="#766d78"/>
      <g id="Group_76" data-name="Group 76" transform="translate(62.05 50.34)">
        <path id="Path_443" data-name="Path 443" d="M229.5,181.315h17.586v82.42H229.5Z" transform="translate(-217.889 -174.131)" fill="#b0aab3"/>
        <path id="Path_444" data-name="Path 444" d="M252.5,429.7h9.954" transform="translate(-233.258 -340.101)" fill="#a199a4"/>
        <g id="Group_75" data-name="Group 75">
          <path id="Path_445" data-name="Path 445" d="M208.3,168a6.968,6.968,0,1,1-6.832-8.332h26.877A6.968,6.968,0,1,1,221.516,168Z" transform="translate(-194.503 -159.665)" fill="#b0aab3"/>
          <g id="Group_74" data-name="Group 74" transform="translate(22.232)">
            <path id="Path_446" data-name="Path 446" d="M273.117,159.665H261.5a6.966,6.966,0,0,1,5.809,10.813,6.966,6.966,0,1,0,5.8-10.813Z" transform="translate(-261.503 -159.665)" fill="#a199a4"/>
          </g>
          <path id="Path_447" data-name="Path 447" d="M262.457,254.464V167.44H252.5v87.024" transform="translate(-233.258 -164.86)" fill="#a199a4"/>
        </g>
      </g>
      <g id="Group_79" data-name="Group 79" transform="translate(9.954 50.34)">
        <path id="Path_448" data-name="Path 448" d="M72.5,181.315H90.089v82.42H72.5Z" transform="translate(-60.889 -174.131)" fill="#b0aab3"/>
        <path id="Path_449" data-name="Path 449" d="M95.5,429.7h9.954" transform="translate(-76.258 -340.101)" fill="#a199a4"/>
        <g id="Group_78" data-name="Group 78">
          <path id="Path_450" data-name="Path 450" d="M51.3,168a6.968,6.968,0,1,1-6.832-8.332H71.348A6.968,6.968,0,1,1,64.516,168Z" transform="translate(-37.503 -159.665)" fill="#b0aab3"/>
          <g id="Group_77" data-name="Group 77" transform="translate(22.232)">
            <path id="Path_451" data-name="Path 451" d="M116.117,159.665H104.5a6.966,6.966,0,0,1,5.809,10.813,6.966,6.966,0,1,0,5.8-10.813Z" transform="translate(-104.503 -159.665)" fill="#a199a4"/>
          </g>
          <path id="Path_452" data-name="Path 452" d="M105.457,254.464V167.44H95.5v87.024" transform="translate(-76.258 -164.86)" fill="#a199a4"/>
        </g>
      </g>
    </g>
    <path id="Path_453" data-name="Path 453" d="M84.946,11.769A9.954,9.954,0,1,0,94.9,21.723,9.966,9.966,0,0,0,84.946,11.769Zm0,14.932a4.977,4.977,0,1,1,4.977-4.977A4.983,4.983,0,0,1,84.946,26.7Zm84.943,11.74a2.507,2.507,0,0,0-1.527-2.256L87.267.941a5.822,5.822,0,0,0-4.638,0L1.53,36.184A2.513,2.513,0,0,0,0,38.514V46.65a9.135,9.135,0,0,0,9.125,9.125h1.96A9.434,9.434,0,0,0,21.57,69.453V140.4a5.364,5.364,0,0,0-6.3,5.143v4.716H9.127A9.135,9.135,0,0,0,0,159.386V165.9a4.152,4.152,0,0,0,4.148,4.148H165.744a4.152,4.152,0,0,0,4.148-4.148v-6.511a9.135,9.135,0,0,0-9.125-9.125h-6.139v-4.716c0-3.492-3.084-5.49-6.3-5.143V69.453a9.448,9.448,0,0,0,10.483-13.678h1.96a9.135,9.135,0,0,0,9.125-9.125V38.515c0-.021,0-.017,0-.075ZM19.413,64.733a4.479,4.479,0,0,1-.01-8.959H46.3a4.479,4.479,0,1,1-4.4,5.361,2.489,2.489,0,0,0-4.883.963,9.384,9.384,0,0,0,2.14,4.358v42.957a2.489,2.489,0,1,0,4.977,0V69.453A9.448,9.448,0,0,0,54.616,55.775h8.565A9.434,9.434,0,0,0,73.665,69.453V140.4a5.363,5.363,0,0,0-6.3,5.143v4.716H50.438v-4.716c0-3.491-3.084-5.49-6.3-5.143V121.027a2.489,2.489,0,1,0-4.977,0V140.4H26.547V66.457a9.381,9.381,0,0,0,2.14-4.358,2.489,2.489,0,0,0-4.883-.963,4.479,4.479,0,0,1-4.391,3.6Zm87.3-8.958h8.565A9.434,9.434,0,0,0,125.76,69.453V140.4a5.362,5.362,0,0,0-6.3,5.143v4.716H102.533v-4.716c0-3.491-3.084-5.49-6.3-5.143V69.453a9.448,9.448,0,0,0,10.483-13.678Zm-9.156,89.771v4.716H72.337v-4.716a.166.166,0,0,1,.166-.166H97.389A.166.166,0,0,1,97.555,145.545Zm.83-80.812a4.479,4.479,0,0,1-4.39-3.6,2.489,2.489,0,0,0-4.883.963,9.384,9.384,0,0,0,2.14,4.358V140.4H78.642V66.457a9.381,9.381,0,0,0,2.14-4.358,2.489,2.489,0,0,0-4.883-.963,4.479,4.479,0,1,1-4.4-5.361h26.9a4.48,4.48,0,0,1-.01,8.959ZM20.242,145.545a.166.166,0,0,1,.166-.166H45.294a.166.166,0,0,1,.166.166v4.716H20.242Zm140.524,9.693a4.152,4.152,0,0,1,4.148,4.148v5.681H4.979v-5.681a4.152,4.152,0,0,1,4.148-4.148Zm-11.282-9.859a.166.166,0,0,1,.166.166v4.716H124.432v-4.716a.166.166,0,0,1,.166-.166Zm1-80.646a4.479,4.479,0,0,1-4.39-3.6,2.489,2.489,0,0,0-4.883.963,9.384,9.384,0,0,0,2.14,4.358V140.4H130.737V66.457a9.381,9.381,0,0,0,2.14-4.358,2.489,2.489,0,0,0-4.883-.963,4.479,4.479,0,1,1-4.4-5.361h26.9a4.48,4.48,0,0,1-.01,8.959ZM164.914,46.65a4.152,4.152,0,0,1-4.148,4.148H9.126A4.152,4.152,0,0,1,4.979,46.65V40.969h116.2a2.489,2.489,0,1,0,0-4.977H14.46L84.615,5.5a.834.834,0,0,1,.666,0l70.152,30.487H132.79a2.489,2.489,0,0,0,0,4.977h32.124V46.65Z" transform="translate(0 0)" fill="#1e1d21"/>
  </g>
</svg>
