<svg xmlns="http://www.w3.org/2000/svg" width="149.682" height="149.521" viewBox="0 0 149.682 149.521">
  <g id="IT-icon" transform="translate(0 -0.5)">
    <path id="Path_454" data-name="Path 454" d="M145.177,128.89H14.943a7.451,7.451,0,0,1-7.451-7.45v-106a7.451,7.451,0,0,1,7.451-7.451H145.177a7.451,7.451,0,0,1,7.45,7.451v106A7.451,7.451,0,0,1,145.177,128.89Zm0,0" transform="translate(-5.302 -5.302)" fill="#ffd86e"/>
    <path id="Path_455" data-name="Path 455" d="M463.876,15.446v106a7.451,7.451,0,0,1-7.45,7.45h-9.1a7.45,7.45,0,0,0,7.45-7.45v-106A7.45,7.45,0,0,0,447.324,8h9.1A7.451,7.451,0,0,1,463.876,15.446Zm0,0" transform="translate(-316.549 -5.305)" fill="#ffb509"/>
    <path id="Path_456" data-name="Path 456" d="M152.628,360.129H7.493v10.5a7.451,7.451,0,0,0,7.451,7.45H145.178a7.451,7.451,0,0,0,7.45-7.45Zm0,0" transform="translate(-5.303 -254.492)" fill="#838383"/>
    <path id="Path_457" data-name="Path 457" d="M463.876,360.129v10.5a7.451,7.451,0,0,1-7.45,7.45h-9.1a7.45,7.45,0,0,0,7.45-7.45v-10.5Zm0,0" transform="translate(-316.549 -254.492)" fill="#5a5a5a"/>
    <path id="Path_458" data-name="Path 458" d="M153.187,33.409H8.047V15.443a7.451,7.451,0,0,1,7.45-7.45H145.737a7.451,7.451,0,0,1,7.45,7.45Zm0,0" transform="translate(-5.695 -5.302)" fill="#acacac"/>
    <path id="Path_459" data-name="Path 459" d="M464.043,15.444V33.413h-9.268V15.444A7.449,7.449,0,0,0,447.324,8h9.267A7.45,7.45,0,0,1,464.043,15.444Zm0,0" transform="translate(-316.55 -5.305)" fill="#9c9c9c"/>
    <path id="Path_460" data-name="Path 460" d="M186.277,421.531h40.6v12.238h-40.6Zm0,0" transform="translate(-131.819 -297.943)" fill="#5a5a5a"/>
    <path id="Path_461" data-name="Path 461" d="M204.653,475.4H137.742a1.461,1.461,0,0,1-1.461-1.461V469.2a5.812,5.812,0,0,1,5.812-5.812H200.3a5.811,5.811,0,0,1,5.81,5.812v4.732a1.46,1.46,0,0,1-1.461,1.461Zm0,0" transform="translate(-96.44 -327.565)" fill="#838383"/>
    <path id="Path_462" data-name="Path 462" d="M345.073,469.2v4.735a1.461,1.461,0,0,1-1.461,1.461h-5.155v-6.2a5.811,5.811,0,0,0-5.809-5.809h6.616A5.81,5.81,0,0,1,345.073,469.2Zm0,0" transform="translate(-235.399 -327.568)" fill="#5a5a5a"/>
    <path id="Path_463" data-name="Path 463" d="M295.477,275.613h47.436V284.6H295.477Zm0,0" transform="translate(-209.095 -194.684)" fill="#64dcfc"/>
    <path id="Path_464" data-name="Path 464" d="M295.477,357.273h47.436v8.992H295.477Zm0,0" transform="translate(-209.095 -252.471)" fill="#64dcfc"/>
    <path id="Path_465" data-name="Path 465" d="M438.551,275.613h5.608V284.6h-5.608Zm0,0" transform="translate(-310.341 -194.684)" fill="#00d1fc"/>
    <path id="Path_466" data-name="Path 466" d="M438.551,357.273h5.608v8.992h-5.608Zm0,0" transform="translate(-310.341 -252.471)" fill="#00d1fc"/>
    <g id="Group_81" data-name="Group 81" transform="translate(80.336 66.047)">
      <path id="Path_467" data-name="Path 467" d="M332.207,239.589H276.915a2.118,2.118,0,0,1-2.118-2.117V226.825a2.119,2.119,0,0,1,2.118-2.118h55.292a2.119,2.119,0,0,1,2.118,2.118v10.647A2.118,2.118,0,0,1,332.207,239.589Zm0,0" transform="translate(-274.797 -224.707)" fill="#0396fd"/>
      <path id="Path_468" data-name="Path 468" d="M332.207,321.249H276.915a2.118,2.118,0,0,1-2.118-2.117V308.485a2.119,2.119,0,0,1,2.118-2.118h55.292a2.119,2.119,0,0,1,2.118,2.118v10.647A2.118,2.118,0,0,1,332.207,321.249Zm0,0" transform="translate(-274.797 -282.493)" fill="#0396fd"/>
      <path id="Path_469" data-name="Path 469" d="M332.207,402.91H276.915a2.118,2.118,0,0,1-2.118-2.117V390.146a2.118,2.118,0,0,1,2.118-2.118h55.292a2.118,2.118,0,0,1,2.118,2.118v10.647A2.118,2.118,0,0,1,332.207,402.91Zm0,0" transform="translate(-274.797 -340.281)" fill="#0396fd"/>
    </g>
    <path id="Path_470" data-name="Path 470" d="M461.4,226.828v10.647a2.116,2.116,0,0,1-2.117,2.117h-4.913a2.116,2.116,0,0,0,2.117-2.117V226.828a2.116,2.116,0,0,0-2.117-2.117h4.913A2.116,2.116,0,0,1,461.4,226.828Zm0,0" transform="translate(-321.533 -158.663)" fill="#0077f0"/>
    <path id="Path_471" data-name="Path 471" d="M461.4,308.484v10.647a2.115,2.115,0,0,1-2.117,2.117h-4.913a2.115,2.115,0,0,0,2.117-2.117V308.484a2.116,2.116,0,0,0-2.117-2.117h4.913A2.116,2.116,0,0,1,461.4,308.484Zm0,0" transform="translate(-321.533 -216.447)" fill="#0077f0"/>
    <path id="Path_472" data-name="Path 472" d="M461.4,390.149v10.646a2.117,2.117,0,0,1-2.117,2.118h-4.913a2.117,2.117,0,0,0,2.117-2.118V390.149a2.115,2.115,0,0,0-2.117-2.118h4.913A2.115,2.115,0,0,1,461.4,390.149Zm0,0" transform="translate(-321.533 -274.237)" fill="#0077f0"/>
    <path id="Path_473" data-name="Path 473" d="M49.241,40.992A4.238,4.238,0,1,1,45,36.754,4.238,4.238,0,0,1,49.241,40.992Zm0,0" transform="translate(-28.848 -25.655)" fill="#ff6b81"/>
    <path id="Path_474" data-name="Path 474" d="M105.227,40.992a4.239,4.239,0,1,1-4.238-4.238A4.239,4.239,0,0,1,105.227,40.992Zm0,0" transform="translate(-68.465 -25.655)" fill="#ffd86e"/>
    <path id="Path_475" data-name="Path 475" d="M161.214,40.992a4.238,4.238,0,1,1-4.238-4.238A4.238,4.238,0,0,1,161.214,40.992Zm0,0" transform="translate(-108.085 -25.655)" fill="#80e0dc"/>
    <path id="Path_476" data-name="Path 476" d="M52.425,41a4.236,4.236,0,0,1-7.159,3.064,4.234,4.234,0,0,0,2.824-7.3.974.974,0,0,1,.1,0A4.236,4.236,0,0,1,52.425,41Zm0,0" transform="translate(-32.033 -25.658)" fill="#ff435f"/>
    <path id="Path_477" data-name="Path 477" d="M108.407,41a4.237,4.237,0,0,1-7.161,3.064,4.234,4.234,0,0,0,2.828-7.3.9.9,0,0,1,.1,0A4.236,4.236,0,0,1,108.407,41Zm0,0" transform="translate(-71.647 -25.658)" fill="#ffb509"/>
    <path id="Path_478" data-name="Path 478" d="M164.4,41a4.238,4.238,0,0,1-7.163,3.064,4.234,4.234,0,0,0,2.824-7.3.974.974,0,0,1,.1,0A4.238,4.238,0,0,1,164.4,41Zm0,0" transform="translate(-111.267 -25.658)" fill="#00a8b0"/>
    <path id="Path_479" data-name="Path 479" d="M40.783,144.746a2.191,2.191,0,1,0,3.1-3.1l-5.319-5.319,5.319-5.318a2.191,2.191,0,0,0-3.1-3.1l-6.868,6.868a2.19,2.19,0,0,0,0,3.1Zm0,0" transform="translate(-23.546 -89.709)"/>
    <path id="Path_480" data-name="Path 480" d="M118.892,136.326l-5.319,5.319a2.191,2.191,0,1,0,3.1,3.1l6.869-6.869a2.19,2.19,0,0,0,0-3.1l-6.869-6.869a2.19,2.19,0,1,0-3.1,3.1Zm0,0" transform="translate(-79.916 -89.707)"/>
    <path id="Path_481" data-name="Path 481" d="M77.807,145.232a2.19,2.19,0,0,0,2.84-1.238l5.4-13.737a2.19,2.19,0,1,0-4.077-1.6l-5.4,13.737A2.191,2.191,0,0,0,77.807,145.232Zm0,0" transform="translate(-54.077 -89.706)"/>
    <path id="Path_482" data-name="Path 482" d="M39.706,222.6H54.464a2.191,2.191,0,0,0,0-4.382H39.706a2.191,2.191,0,0,0,0,4.382Zm0,0" transform="translate(-26.548 -154.066)"/>
    <path id="Path_483" data-name="Path 483" d="M143.648,218.215H117.7a2.191,2.191,0,0,0,0,4.382h25.946a2.191,2.191,0,1,0,0-4.382Zm0,0" transform="translate(-81.742 -154.066)"/>
    <path id="Path_484" data-name="Path 484" d="M39.706,254.2h6.287a2.191,2.191,0,0,0,0-4.382H39.706a2.191,2.191,0,0,0,0,4.382Zm0,0" transform="translate(-26.548 -176.432)"/>
    <path id="Path_485" data-name="Path 485" d="M179.038,249.82a2.191,2.191,0,0,0,0,4.382h3.828a2.191,2.191,0,1,0,0-4.382Zm0,0" transform="translate(-125.147 -176.432)"/>
    <path id="Path_486" data-name="Path 486" d="M108.5,252.011a2.191,2.191,0,0,0-2.19-2.19H87.5a2.191,2.191,0,0,0,0,4.382h18.8A2.191,2.191,0,0,0,108.5,252.011Zm0,0" transform="translate(-60.372 -176.432)"/>
    <path id="Path_487" data-name="Path 487" d="M213.7,252.011a2.191,2.191,0,0,0,2.19,2.191h7.171a2.191,2.191,0,1,0,0-4.382h-7.171A2.191,2.191,0,0,0,213.7,252.011Zm0,0" transform="translate(-151.227 -176.432)"/>
    <path id="Path_488" data-name="Path 488" d="M167.59,153.66h7.563a2.191,2.191,0,1,0,0-4.382H167.59a2.191,2.191,0,1,0,0,4.382Zm0,0" transform="translate(-117.045 -105.283)"/>
    <path id="Path_489" data-name="Path 489" d="M222.437,153.66h46.149a2.191,2.191,0,0,0,0-4.382H222.437a2.191,2.191,0,1,0,0,4.382Zm0,0" transform="translate(-155.857 -105.283)"/>
    <path id="Path_490" data-name="Path 490" d="M311.068,182.246H292.374a2.191,2.191,0,0,0,0,4.382h18.694a2.191,2.191,0,0,0,0-4.382Zm0,0" transform="translate(-205.349 -128.613)"/>
    <path id="Path_491" data-name="Path 491" d="M252.843,182.246h-6.426a2.191,2.191,0,0,0,0,4.382h6.426a2.191,2.191,0,0,0,0-4.382Zm0,0" transform="translate(-172.827 -128.613)"/>
    <path id="Path_492" data-name="Path 492" d="M167.59,186.628h15.742a2.191,2.191,0,0,0,0-4.382H167.59a2.191,2.191,0,1,0,0,4.382Zm0,0" transform="translate(-117.045 -128.613)"/>
    <path id="Path_493" data-name="Path 493" d="M116.195,281.16H101.438a2.19,2.19,0,1,0,0,4.381h14.757a2.19,2.19,0,0,0,0-4.381Zm0,0" transform="translate(-70.232 -198.609)"/>
    <path id="Path_494" data-name="Path 494" d="M51.044,281.16H39.706a2.19,2.19,0,0,0,0,4.381H51.044a2.19,2.19,0,1,0,0-4.381Zm0,0" transform="translate(-26.548 -198.609)"/>
    <path id="Path_495" data-name="Path 495" d="M196.758,281.16H177.48a2.19,2.19,0,1,0,0,4.381h19.278a2.19,2.19,0,0,0,0-4.381Zm0,0" transform="translate(-124.044 -198.609)"/>
    <path id="Path_496" data-name="Path 496" d="M307.079,242.668H296.538a2.191,2.191,0,0,0,0,4.382h10.542a2.191,2.191,0,0,0,0-4.382Zm0,0" transform="translate(-208.295 -171.37)"/>
    <path id="Path_497" data-name="Path 497" d="M395.167,247.05h14.881a2.191,2.191,0,1,0,0-4.382H395.167a2.191,2.191,0,0,0,0,4.382Zm0,0" transform="translate(-278.091 -171.37)"/>
    <path id="Path_498" data-name="Path 498" d="M361.457,242.668h-3.41a2.191,2.191,0,1,0,0,4.382h3.41a2.191,2.191,0,0,0,0-4.382Zm0,0" transform="translate(-251.822 -171.37)"/>
    <path id="Path_499" data-name="Path 499" d="M296.538,328.709H307.08a2.19,2.19,0,0,0,0-4.381H296.538a2.19,2.19,0,0,0,0,4.381Zm0,0" transform="translate(-208.296 -229.158)"/>
    <path id="Path_500" data-name="Path 500" d="M395.167,328.709h14.881a2.19,2.19,0,1,0,0-4.381H395.167a2.19,2.19,0,1,0,0,4.381Zm0,0" transform="translate(-278.091 -229.158)"/>
    <path id="Path_501" data-name="Path 501" d="M358.05,328.709h3.41a2.19,2.19,0,1,0,0-4.381h-3.41a2.19,2.19,0,1,0,0,4.381Zm0,0" transform="translate(-251.825 -229.158)"/>
    <path id="Path_502" data-name="Path 502" d="M307.079,405.988H296.538a2.19,2.19,0,1,0,0,4.381h10.542a2.19,2.19,0,1,0,0-4.381Zm0,0" transform="translate(-208.295 -286.944)"/>
    <path id="Path_503" data-name="Path 503" d="M410.048,405.988H395.167a2.19,2.19,0,1,0,0,4.381h14.881a2.19,2.19,0,1,0,0-4.381Zm0,0" transform="translate(-278.09 -286.944)"/>
    <path id="Path_504" data-name="Path 504" d="M361.457,405.988h-3.41a2.19,2.19,0,1,0,0,4.381h3.41a2.19,2.19,0,0,0,0-4.381Zm0,0" transform="translate(-251.822 -286.944)"/>
    <path id="Path_505" data-name="Path 505" d="M140.042.5H9.641A9.653,9.653,0,0,0,0,10.142v106a9.652,9.652,0,0,0,9.642,9.641h8.244a2.19,2.19,0,1,0,0-4.381H9.641a5.266,5.266,0,0,1-5.26-5.26v-8.31h79.81V111.6H82.455a4.313,4.313,0,0,0-4.309,4.309V121.4H31.2a2.19,2.19,0,0,0,0,4.381H52.267v7.857H45.653a8.011,8.011,0,0,0-8,8v4.732a3.655,3.655,0,0,0,3.651,3.651h66.911a3.655,3.655,0,0,0,3.651-3.651v-4.732a8.011,8.011,0,0,0-8-8H97.248v-2.769h40.5a4.313,4.313,0,0,0,4.308-4.309v-1.031a9.655,9.655,0,0,0,7.462-9.388l.166-106A9.65,9.65,0,0,0,140.042.5ZM82.528,102.612v-10.5h55.146v10.5ZM88.572,87.73V83.121h43.055V87.73Zm43.055,19.263v4.61H88.572v-4.61Zm-74.98,18.786h21.5v.78a4.313,4.313,0,0,0,4.309,4.308H92.867v2.769H56.648Zm47.216,12.239a3.624,3.624,0,0,1,3.62,3.62v4H42.032v-4a3.625,3.625,0,0,1,3.621-3.62Zm33.81-11.533H82.528v-10.5h55.146Zm7.462-10.346a5.261,5.261,0,0,1-3.08,4.78v-5.008a4.313,4.313,0,0,0-4.309-4.308h-1.737v-3.775h9.126Zm0-12.691h-3.152c.045-.248.072-11.408.072-11.408a4.314,4.314,0,0,0-4.309-4.309h-1.737V83.121h1.737a4.314,4.314,0,0,0,4.309-4.309V68.165a4.314,4.314,0,0,0-4.309-4.309H125.373a2.191,2.191,0,0,0,0,4.382h12.3v10.5H82.527v-10.5h29.214a2.191,2.191,0,0,0,0-4.382H82.454a4.314,4.314,0,0,0-4.309,4.309V78.812a4.314,4.314,0,0,0,4.309,4.309h1.737V87.73H82.454a4.314,4.314,0,0,0-4.309,4.309s.027,11.161.072,11.408H4.381V30.3H145.135Zm0-77.53H4.542V10.141A5.265,5.265,0,0,1,9.8,4.882H139.875a5.266,5.266,0,0,1,5.26,5.26Zm0,0"/>
    <path id="Path_506" data-name="Path 506" d="M39.7,29.262a6.429,6.429,0,1,0,6.429,6.428A6.435,6.435,0,0,0,39.7,29.262Zm0,8.476a2.048,2.048,0,1,1,2.048-2.048A2.05,2.05,0,0,1,39.7,37.738Zm0,0" transform="translate(-23.546 -20.353)"/>
    <path id="Path_507" data-name="Path 507" d="M95.687,29.262a6.429,6.429,0,1,0,6.428,6.428A6.436,6.436,0,0,0,95.687,29.262Zm0,8.476a2.048,2.048,0,1,1,2.048-2.048A2.049,2.049,0,0,1,95.687,37.738Zm0,0" transform="translate(-63.164 -20.353)"/>
    <path id="Path_508" data-name="Path 508" d="M151.674,29.262A6.429,6.429,0,1,0,158.1,35.69,6.435,6.435,0,0,0,151.674,29.262Zm0,8.476a2.048,2.048,0,1,1,2.048-2.048A2.05,2.05,0,0,1,151.674,37.738Zm0,0" transform="translate(-102.784 -20.353)"/>
  </g>
</svg>
