<svg xmlns="http://www.w3.org/2000/svg" width="147.85" height="154.325" viewBox="0 0 147.85 154.325">
  <g id="science-icon" transform="translate(-10.741)">
    <g id="Group_51" data-name="Group 51" transform="translate(24.165 12.77)">
      <path id="Path_384" data-name="Path 384" d="M55.278,134.4c9.561-5.759,34.252-3.17,48.384,8.228,13.628-7.177,27.2-11.62,40.686-11.3l-21.3-28.059c-3.255-4.281-6.647-12.876-6.664-20.3l-.094-40.6H85.677l-.094,40.6a38.166,38.166,0,0,1-6.656,20.3Z" transform="translate(-55.278 -42.366)" fill="#f9f7f8" fill-rule="evenodd"/>
    </g>
    <g id="Group_52" data-name="Group 52" transform="translate(14.297 98.012)">
      <path id="Path_385" data-name="Path 385" d="M22.539,349.892c31.151,4.272,46.889-7.348,58.252-18.242-14.132-11.4-38.823-5.443-48.384.316l-3.845,5.058a36.965,36.965,0,0,0-6.023,12.867Z" transform="translate(-22.539 -325.172)" fill="#a1d4ff" fill-rule="evenodd"/>
    </g>
    <g id="Group_53" data-name="Group 53" transform="translate(13.031 96.733)">
      <path id="Path_386" data-name="Path 386" d="M36.41,376.261h77.536c6.562,0,11.09-2.358,13.978-6.032,6.587-10.441,1.931-28.828-2.931-35.808l-6.451-8.493c-15.712-9.031-27.058-4.417-40.686,2.76C63.536,336.232,46.7,346.6,19.6,346.929,16.049,360.582,19.467,376.261,36.41,376.261Z" transform="translate(-18.337 -320.929)" fill="#22a6fe" fill-rule="evenodd"/>
    </g>
    <g id="Group_54" data-name="Group 54" transform="translate(119.686 23.689)">
      <path id="Path_387" data-name="Path 387" d="M387.059,135.317a14.474,14.474,0,0,0,14.875,0V78.593h-29.75v56.724A14.475,14.475,0,0,1,387.059,135.317Z" transform="translate(-372.184 -78.593)" fill="#f9f7f8" fill-rule="evenodd"/>
    </g>
    <g id="Group_55" data-name="Group 55" transform="translate(112.791 13.18)">
      <path id="Path_388" data-name="Path 388" d="M356.2,57.252h30.365a6.781,6.781,0,0,0,0-13.525h-30.98a6.781,6.781,0,0,0,0,13.525Z" transform="translate(-349.309 -43.727)" fill="#a1d4ff" fill-rule="evenodd"/>
    </g>
    <g id="Group_56" data-name="Group 56" transform="translate(46.422 2.261)">
      <path id="Path_389" data-name="Path 389" d="M137.261,21.026H169.25a6.763,6.763,0,1,0,0-13.525H135.886a6.763,6.763,0,1,0,0,13.525Z" transform="translate(-129.119 -7.501)" fill="#a1d4ff" fill-rule="evenodd"/>
    </g>
    <g id="Group_57" data-name="Group 57" transform="translate(63.903 72.04)">
      <path id="Path_390" data-name="Path 390" d="M187.114,244.97a5.968,5.968,0,1,0,5.964-5.964A5.971,5.971,0,0,0,187.114,244.97Z" transform="translate(-187.114 -239.006)" fill="#a1d4ff" fill-rule="evenodd"/>
    </g>
    <g id="Group_58" data-name="Group 58" transform="translate(84.169 120.784)">
      <path id="Path_391" data-name="Path 391" d="M254.35,409.874a9.155,9.155,0,1,0,9.15-9.151A9.158,9.158,0,0,0,254.35,409.874Z" transform="translate(-254.35 -400.723)" fill="#a1d4ff" fill-rule="evenodd"/>
    </g>
    <g id="Group_59" data-name="Group 59" transform="translate(36.153 129.499)">
      <path id="Path_392" data-name="Path 392" d="M100.618,440.769a5.567,5.567,0,1,0-5.57-5.571A5.572,5.572,0,0,0,100.618,440.769Z" transform="translate(-95.048 -429.636)" fill="#a1d4ff" fill-rule="evenodd"/>
    </g>
    <g id="Group_60" data-name="Group 60" transform="translate(75.728 15.786)">
      <path id="Path_393" data-name="Path 393" d="M235.888,89.958l-.094-37.585h-9.449l.094,37.585c.017,7.425,3.409,16.02,6.664,20.3l17.712,23.334a36.01,36.01,0,0,1,13.038,4.725l-21.3-28.059C239.3,105.979,235.906,97.383,235.888,89.958Z" transform="translate(-226.345 -52.373)" fill="#dddaec" fill-rule="evenodd"/>
    </g>
    <g id="Group_61" data-name="Group 61" transform="translate(94.892 97.006)">
      <path id="Path_394" data-name="Path 394" d="M314.454,334.693l-6.186-8.134a36.011,36.011,0,0,0-13.038-4.725l3.6,4.725c9.227,12.167,11.509,50.333-8.9,50.333h13.747c6.562,0,11.09-2.358,13.978-6.032a14.806,14.806,0,0,1-2.931-8.843V335.052Z" transform="translate(-289.925 -321.834)" fill="#0593fc" fill-rule="evenodd"/>
    </g>
    <g id="Group_62" data-name="Group 62" transform="translate(77.103 2.261)">
      <path id="Path_395" data-name="Path 395" d="M247.125,14.258A6.786,6.786,0,0,0,240.358,7.5h-9.424a6.763,6.763,0,0,1-.026,13.525h9.45A6.782,6.782,0,0,0,247.125,14.258Z" transform="translate(-230.909 -7.5)" fill="#80b4fb" fill-rule="evenodd"/>
    </g>
    <g id="Group_63" data-name="Group 63" transform="translate(141.798 26.705)">
      <path id="Path_396" data-name="Path 396" d="M453.181,139.292V88.6h-7.638v52.743A13.714,13.714,0,0,0,453.181,139.292Z" transform="translate(-445.543 -88.599)" fill="#dddaec" fill-rule="evenodd"/>
    </g>
    <g id="Group_64" data-name="Group 64" transform="translate(142.412 13.18)">
      <path id="Path_397" data-name="Path 397" d="M461.5,50.494a6.555,6.555,0,0,0-6.28-6.767H447.6a6.782,6.782,0,0,1-.017,13.525h7.638A6.553,6.553,0,0,0,461.5,50.494Z" transform="translate(-447.583 -43.727)" fill="#80b4fb" fill-rule="evenodd"/>
    </g>
    <g id="Group_65" data-name="Group 65" transform="translate(119.686 75.341)">
      <path id="Path_398" data-name="Path 398" d="M372.184,284.839V311.8a14.916,14.916,0,0,0,14.559,14.875h.632A14.929,14.929,0,0,0,401.934,311.8V252.013a14.474,14.474,0,0,1-14.875,0,14.475,14.475,0,0,0-14.875,0v32.826Z" transform="translate(-372.184 -249.956)" fill="#eb5468" fill-rule="evenodd"/>
    </g>
    <g id="Group_66" data-name="Group 66" transform="translate(129.229 93.777)">
      <path id="Path_399" data-name="Path 399" d="M409.177,321.774a5.327,5.327,0,1,0-5.331-5.323A5.324,5.324,0,0,0,409.177,321.774Z" transform="translate(-403.846 -311.12)" fill="#a1d4ff" fill-rule="evenodd"/>
    </g>
    <g id="Group_67" data-name="Group 67" transform="translate(130.742 77.398)">
      <path id="Path_400" data-name="Path 400" d="M427.558,316.572V256.78a13.712,13.712,0,0,1-7.638,2.051v57.741a14.952,14.952,0,0,1-11.056,14.38,14.75,14.75,0,0,0,3.5.5H413A14.929,14.929,0,0,0,427.558,316.572Z" transform="translate(-408.864 -256.78)" fill="#e5384f" fill-rule="evenodd"/>
    </g>
    <g id="Group_68" data-name="Group 68" transform="translate(10.741 0)">
      <path id="Path_401" data-name="Path 401" d="M162.08,405.617l-.026.026a2.26,2.26,0,1,0,3.188,3.206l.026-.026a2.261,2.261,0,0,0-3.188-3.206Z" transform="translate(-115.98 -282.898)"/>
      <path id="Path_402" data-name="Path 402" d="M223.3,381.611l-.026.026a2.261,2.261,0,1,0,3.2,3.2l.026-.026a2.26,2.26,0,1,0-3.2-3.2Z" transform="translate(-158.752 -266.125)"/>
      <path id="Path_403" data-name="Path 403" d="M196.071,239.73a8.229,8.229,0,1,0-8.224,8.233A8.234,8.234,0,0,0,196.071,239.73Zm-11.936,0a3.707,3.707,0,1,1,3.711,3.712A3.712,3.712,0,0,1,184.135,239.73Z" transform="translate(-128.713 -161.726)"/>
      <path id="Path_404" data-name="Path 404" d="M258.262,393.223a11.416,11.416,0,1,0,11.419,11.411,11.424,11.424,0,0,0-11.419-11.411Zm0,18.31a6.894,6.894,0,1,1,6.9-6.9A6.9,6.9,0,0,1,258.262,411.533Z" transform="translate(-175.684 -274.699)"/>
      <path id="Path_405" data-name="Path 405" d="M95.379,422.137a7.827,7.827,0,1,0,7.831,7.823A7.836,7.836,0,0,0,95.379,422.137Zm0,11.133a3.306,3.306,0,1,1,3.31-3.31A3.314,3.314,0,0,1,95.379,433.27Z" transform="translate(-64.397 -294.898)"/>
      <path id="Path_406" data-name="Path 406" d="M403.128,385.665l-.026.026a2.26,2.26,0,1,0,3.2,3.2l.026-.026a2.26,2.26,0,0,0-3.2-3.2Z" transform="translate(-284.376 -268.957)"/>
      <path id="Path_407" data-name="Path 407" d="M419.12,442.949l-.026.026a2.26,2.26,0,1,0,3.188,3.206l.026-.026a2.261,2.261,0,1,0-3.188-3.206Z" transform="translate(-295.544 -308.977)"/>
      <path id="Path_408" data-name="Path 408" d="M403.938,318.8a7.588,7.588,0,1,0-7.592-7.584A7.592,7.592,0,0,0,403.938,318.8Zm0-10.654a3.067,3.067,0,1,1-3.071,3.071A3.07,3.07,0,0,1,403.938,308.141Z" transform="translate(-280.118 -212.104)"/>
      <path id="Path_409" data-name="Path 409" d="M150.051,10.919h-30.98a8.8,8.8,0,0,0-8.54,9.027,8.921,8.921,0,0,0,6.895,8.849v74.7L93.735,72.3c-3.037-3.993-6.187-12.169-6.2-18.938L87.443,18a9.023,9.023,0,0,0-.89-18H53.189A9.023,9.023,0,0,0,52.3,18V53.366A36.109,36.109,0,0,1,46.014,72.3L38.462,82.25a2.261,2.261,0,1,0,3.6,2.735l7.554-9.947c3.316-4.372,6.842-13.033,7.1-20.825H64.39a2.261,2.261,0,0,0,0-4.521H56.74l.019-7.535H64.39a2.261,2.261,0,0,0,0-4.521h-7.62L56.79,30.1h7.6a2.261,2.261,0,0,0,0-4.521H56.8l.019-7.535h26.1V53.375a40.588,40.588,0,0,0,7.213,21.664l15.95,21a31.543,31.543,0,0,0-16.192-.923c-5.766,1.143-11.22,3.64-17.12,6.707-11.879-8.533-29.553-6.674-41.358-2.695l4.42-5.755a2.261,2.261,0,0,0-3.586-2.754L18.527,108.489a40.24,40.24,0,0,0-7.233,17.286c-1.166,6.9-.474,13.4,1.95,18.317,2.3,4.668,7.27,10.233,17.859,10.233h77.536c5.69,0,10.444-1.695,13.923-4.918A17.124,17.124,0,0,0,151.7,137.189V61.548a2.261,2.261,0,0,0-4.521,0V76.081a12.371,12.371,0,0,1-11.359-.564,16.841,16.841,0,0,0-13.869-1.661V65.142h7.565a2.261,2.261,0,0,0,0-4.521h-7.565V53.077h7.565a2.261,2.261,0,0,0,0-4.521h-7.565V41.022h7.565a2.261,2.261,0,0,0,0-4.521h-7.565V28.966h25.229v22.15a2.261,2.261,0,1,0,4.521,0V28.8a8.921,8.921,0,0,0,6.895-8.849,8.8,8.8,0,0,0-8.54-9.028ZM53.189,13.525a4.5,4.5,0,1,1,0-9H86.553a4.5,4.5,0,1,1,0,9ZM22.114,111.242l3.65-4.752c9.076-5.223,29.454-9.706,42.432-2.24l-.508.272c-13.108,7.022-27.895,14.935-50.321,15.862a32.765,32.765,0,0,1,4.746-9.142ZM108.639,149.8H31.1c-6.636,0-11.28-2.595-13.8-7.712-2.369-4.8-2.5-11.124-1.208-17.139,24.3-.688,40.589-9.4,53.731-16.445,15.1-8.091,26.051-13.952,41.911-5.028l5.692,7.5v26.214a17.029,17.029,0,0,0,2.348,8.642C117.107,148.469,113.37,149.8,108.639,149.8ZM133.3,79.277A15.8,15.8,0,0,0,142,81.72a17.264,17.264,0,0,0,5.18-.781v56.25a12.614,12.614,0,1,1-25.229,0V78.714a12.386,12.386,0,0,1,11.358.563Zm16.747-54.832h-30.98a4.283,4.283,0,0,1-4.019-4.5,4.288,4.288,0,0,1,4.019-4.506h30.98a4.288,4.288,0,0,1,4.019,4.506,4.284,4.284,0,0,1-4.019,4.5Z" transform="translate(-10.741 0)"/>
    </g>
  </g>
</svg>
