<svg xmlns="http://www.w3.org/2000/svg" width="102.524" height="120" viewBox="0 0 102.524 120">
  <g id="molecule-symbol" transform="translate(-38.342)">
    <path id="Path_78" data-name="Path 78" d="M126.45,91.166a14.408,14.408,0,0,0-2.485.25l-12.5-20.959a14.232,14.232,0,0,0,.639-23.014l8.627-19.081a14.121,14.121,0,0,0,3.481.474,14.54,14.54,0,1,0-8.422-2.774l-8.526,18.857a14.383,14.383,0,0,0-16.592,6.791,14.206,14.206,0,0,0-1.744,6.017H66.936a14.341,14.341,0,1,0-.1,5.449H89.608a14.212,14.212,0,0,0,16.844,9.506L118.81,93.407a14.354,14.354,0,1,0,7.64-2.241ZM115.244,14.416a8.965,8.965,0,1,1,8.968,8.968A8.978,8.978,0,0,1,115.244,14.416ZM52.758,69.094a8.965,8.965,0,1,1,8.971-8.964A8.975,8.975,0,0,1,52.758,69.094ZM126.45,114.55a8.967,8.967,0,1,1,8.965-8.965A8.976,8.976,0,0,1,126.45,114.55Z" fill="#2f2e41"/>
  </g>
</svg>
