<svg xmlns="http://www.w3.org/2000/svg" width="120.029" height="120" viewBox="0 0 120.029 120">
  <g id="reaction-svg" transform="translate(0 -0.5)">
    <path id="Path_572" data-name="Path 572" d="M238.87,19.872A14.063,14.063,0,1,0,252.13,10.5" transform="translate(-182.256 -7.653)" fill="#bdd9ff"/>
    <path id="Path_573" data-name="Path 573" d="M282.747,50.488a4.687,4.687,0,1,0,4.687,4.688A4.693,4.693,0,0,0,282.747,50.488Zm0,0" transform="translate(-212.873 -38.269)" fill="#fff"/>
    <path id="Path_574" data-name="Path 574" d="M320.061,19.872h2.314a9.374,9.374,0,0,1,9.375,9.375V52.668h9.375V29.246a18.75,18.75,0,0,0-18.75-18.75H307.661Zm0,0" transform="translate(-235.535 -7.653)" fill="#bdd9ff"/>
    <path id="Path_575" data-name="Path 575" d="M144.086,19.872h-28.4a9.375,9.375,0,0,0-9.375,9.375v6.319H96.938V29.246a18.749,18.749,0,0,1,18.75-18.75h28.4Zm0,0" transform="translate(-74.212 -7.653)" fill="#bdd9ff"/>
    <path id="Path_576" data-name="Path 576" d="M362.727,190.387H387.1a4.688,4.688,0,1,1,0,9.375H362.727a4.688,4.688,0,1,1,0-9.375Zm0,0" transform="translate(-274.103 -145.371)" fill="#eff3f3"/>
    <path id="Path_577" data-name="Path 577" d="M404.531,282.894V230.379h-22.5v52.515a11.25,11.25,0,0,0,22.5,0Zm0,0" transform="translate(-292.471 -175.988)" fill="#eff3f3"/>
    <path id="Path_578" data-name="Path 578" d="M382.031,348.082V373a11.25,11.25,0,1,0,22.5,0V348.082Zm0,0" transform="translate(-292.471 -266.098)" fill="#9593e6"/>
    <path id="Path_579" data-name="Path 579" d="M52.358,193.639h-6.98V162.164H24.752v31.475h-6.98A7.777,7.777,0,0,0,10,201.416v32.729a7.776,7.776,0,0,0,7.777,7.776H52.357a7.776,7.776,0,0,0,7.776-7.776V201.416a7.776,7.776,0,0,0-7.776-7.777Zm0,0" transform="translate(-7.653 -123.765)" fill="#eff3f3"/>
    <path id="Path_580" data-name="Path 580" d="M60.133,395.727v-17.31a17.727,17.727,0,0,0-25.069,0,17.725,17.725,0,0,1-25.069,0v17.31a7.776,7.776,0,0,0,7.777,7.776H52.357a7.776,7.776,0,0,0,7.776-7.776Zm0,0" transform="translate(-7.652 -285.347)" fill="#91def5"/>
    <path id="Path_581" data-name="Path 581" d="M73.577,118.473H50.07a5.121,5.121,0,1,0,0,10.242H73.577a5.121,5.121,0,1,0,0-10.242Zm0,0" transform="translate(-34.411 -90.316)" fill="#eff3f3"/>
    <path id="Path_582" data-name="Path 582" d="M120.029,49.7A7.039,7.039,0,0,0,113,42.672H98.558V21.594A11.732,11.732,0,0,0,86.839,9.875H84.693a16.488,16.488,0,0,0-3.353-4.687h5.5a16.425,16.425,0,0,1,16.407,16.406v4.672a2.343,2.343,0,1,0,4.687,0V21.593A21.117,21.117,0,0,0,86.839.5H41.475A21.117,21.117,0,0,0,20.381,21.593v4.219H15.659a7.464,7.464,0,0,0-.9,14.874V67.531H10.12A10.131,10.131,0,0,0,0,77.651V110.38A10.131,10.131,0,0,0,10.12,120.5H44.7a10.132,10.132,0,0,0,10.12-10.12V77.651A10.131,10.131,0,0,0,44.7,67.531H40.068V40.686a7.464,7.464,0,0,0-.9-14.874H34.443V21.593a7.04,7.04,0,0,1,7.032-7.031H53.637a16.406,16.406,0,1,0,32.472,0h.731a7.039,7.039,0,0,1,7.031,7.031V42.672H88.622a7.031,7.031,0,0,0-1.406,13.92v50.313a13.593,13.593,0,0,0,27.187,0V56.593a7.042,7.042,0,0,0,5.625-6.889ZM44.7,115.812H10.12a5.438,5.438,0,0,1-5.432-5.432V97.83a20.113,20.113,0,0,0,24.382-3.1,15.4,15.4,0,0,1,21.068-.642V110.38a5.438,5.438,0,0,1-5.432,5.432Zm0-43.593a5.438,5.438,0,0,1,5.432,5.432V88.312a20.108,20.108,0,0,0-24.383,3.1,15.4,15.4,0,0,1-21.067.642v-14.4a5.438,5.438,0,0,1,5.432-5.432H17.1a2.344,2.344,0,0,0,2.343-2.344V40.743H35.381V69.875a2.344,2.344,0,0,0,2.344,2.344ZM41.943,33.278a2.781,2.781,0,0,1-2.777,2.778H15.659a2.778,2.778,0,1,1,0-5.556H39.165A2.781,2.781,0,0,1,41.943,33.278Zm27.93-4.653A11.717,11.717,0,0,1,58.392,14.562h4.853a7.031,7.031,0,1,0,6.628-4.688h-28.4A11.732,11.732,0,0,0,29.756,21.594v3.975H25.068V21.594A16.425,16.425,0,0,1,41.475,5.188h28.4a11.718,11.718,0,0,1,0,23.437Zm2.343-11.718a2.344,2.344,0,1,1-2.343-2.344A2.346,2.346,0,0,1,72.217,16.907Zm37.5,62.734H91.9V56.735h17.812Zm-8.907,36.172a8.916,8.916,0,0,1-8.906-8.907V84.328h17.812v22.578A8.917,8.917,0,0,1,100.81,115.813ZM113,52.047H88.623a2.344,2.344,0,1,1,0-4.688H113a2.344,2.344,0,0,1,0,4.688Zm0,0"/>
    <path id="Path_583" data-name="Path 583" d="M162.3,415.227a2.345,2.345,0,1,0,1.658.687A2.361,2.361,0,0,0,162.3,415.227Zm0,0" transform="translate(-122.461 -317.502)"/>
    <path id="Path_584" data-name="Path 584" d="M426.716,428.4a2.345,2.345,0,1,0,1.659.687A2.364,2.364,0,0,0,426.716,428.4Zm0,0" transform="translate(-324.888 -327.583)"/>
    <path id="Path_585" data-name="Path 585" d="M410.834,284.208a2.345,2.345,0,1,0-1.659-.687A2.364,2.364,0,0,0,410.834,284.208Zm0,0" transform="translate(-312.726 -213.609)"/>
    <path id="Path_586" data-name="Path 586" d="M76.325,452.387a2.345,2.345,0,1,0,1.657.687A2.363,2.363,0,0,0,76.325,452.387Zm0,0" transform="translate(-56.637 -345.95)"/>
    <path id="Path_587" data-name="Path 587" d="M62.329,345.223a2.346,2.346,0,1,0,1.657.688,2.358,2.358,0,0,0-1.657-.688Zm0,0" transform="translate(-45.922 -263.909)"/>
    <path id="Path_588" data-name="Path 588" d="M109.277,279.52a2.345,2.345,0,1,0,1.658.687A2.361,2.361,0,0,0,109.277,279.52Zm0,0" transform="translate(-81.865 -213.609)"/>
    <path id="Path_589" data-name="Path 589" d="M442.754,140.4a2.345,2.345,0,1,0,1.657.687A2.361,2.361,0,0,0,442.754,140.4Zm0,0" transform="translate(-337.164 -107.099)"/>
  </g>
</svg>
