<svg xmlns="http://www.w3.org/2000/svg" width="437.586" height="456.232" viewBox="0 0 437.586 456.232">
  <g id="boy-illustration" transform="translate(0)">
    <path id="Path_38" data-name="Path 38" d="M687.569,729.159c0,17.176-92.83,31.1-207.343,31.1s-207.343-13.925-207.343-31.1c0-12.16,46.532-22.694,114.347-27.8,27.965-2.114,59.561-3.3,93-3.3,13.745,0,27.175.2,40.164.582C615.681,701.448,687.569,714.042,687.569,729.159Z" transform="translate(-272.882 -304.028)" fill="#3f3d56"/>
    <ellipse id="Ellipse_3" data-name="Ellipse 3" cx="79.593" cy="9.698" rx="79.593" ry="9.698" transform="translate(100.996 412.088)" opacity="0.1"/>
    <ellipse id="Ellipse_4" data-name="Ellipse 4" cx="75.246" cy="80.262" rx="75.246" ry="80.262" transform="translate(105.01 268.285)" fill="#3f3d56"/>
    <rect id="Rectangle_6" data-name="Rectangle 6" width="46.819" height="42.806" transform="translate(157.18 396.035)" fill="#778ada"/>
    <path id="Path_39" data-name="Path 39" d="M395.175,607.614,392.5,622.329,409.89,625l11.37-6.689-.669-10.7Z" transform="translate(-129.976 -201.211)" fill="#575a89"/>
    <path id="Path_40" data-name="Path 40" d="M535.743,303.365s-1.338,15.384-4.682,16.052,7.357,27.423,7.357,27.423h16.052l12.708-3.344-6.02-14.715s-8.026-10.7-2.007-19.4S535.743,303.365,535.743,303.365Z" transform="translate(-358.164 -173.197)" fill="#a0616a"/>
    <path id="Path_41" data-name="Path 41" d="M535.743,303.365s-1.338,15.384-4.682,16.052,7.357,27.423,7.357,27.423h16.052l12.708-3.344-6.02-14.715s-8.026-10.7-2.007-19.4S535.743,303.365,535.743,303.365Z" transform="translate(-358.164 -173.197)" opacity="0.1"/>
    <path id="Path_42" data-name="Path 42" d="M484.013,478.232s-17.39,33.443-3.344,40.131,17.39,6.02,17.39,8.026-2.675,1.338-1.338,4.682-2.675,16.721,1.338,24.747,2.675,14.046,2.675,14.046,0,.669,1.338,3.344,2.007,4.682,1.338,6.02-4.682,10.033-.669,12.039,24.747,3.344,26.754,0-2.007-5.351,0-7.357,3.344-2.675,2.007-4.013-2.675-18.059-2.675-18.059,3.344-19.4,2.007-22.072-3.344-5.351-2.007-7.357,2.675-1.338,3.344-4.013,2.007-8.7,2.007-8.7l7.357-.669,17.39,3.344s19.4,21.4,40.8,28.092c0,0,6.02,6.02,8.026,6.02s2.007,0,1.338,1.338-2.675,1.338-1.338,2.675,3.344-.669,2.007,1.338-2.675,2.007-1.338,3.344-.669,8.7-.669,9.364-6.02,63.541-4.013,64.878,30.1,5.351,32.1,0-1.338-12.039-1.338-12.039,10.033-80.262,7.357-85.613-12.039-29.429-62.2-44.813c0,0-14.046-2.675-14.046-4.682s-1.338-14.715-4.013-15.384-18.059-1.338-18.059-1.338l-19.4,6.02-26.754-4.682Z" transform="translate(-339.876 -230.347)" fill="#2f2e41"/>
    <path id="Path_43" data-name="Path 43" d="M521.225,646.564,517.88,658.6s-2.675,19.4.669,24.079a21.037,21.037,0,0,0,16.015,8.971,10.749,10.749,0,0,0,11.222-7.436,3.349,3.349,0,0,0,.185-.866c0-1.338-2.007-17.39-2.007-17.39l-3.344-16.721-.669-4.682Z" transform="translate(-353.677 -286.312)" fill="#2f2e41"/>
    <path id="Path_44" data-name="Path 44" d="M666.718,730.492s-3.344-3.344-4.013,0-3.344,17.39,1.338,18.059,49.495,7.357,54.177,4.682,13.377-6.688,8.026-8.7-20.734-8.026-20.734-8.026-8.7-11.37-10.033-12.039-8.7.669-12.039,3.344S666.718,730.492,666.718,730.492Z" transform="translate(-401.519 -312.719)" fill="#2f2e41"/>
    <circle id="Ellipse_5" data-name="Ellipse 5" cx="20.734" cy="20.734" r="20.734" transform="translate(172.898 102.745)" fill="#a0616a"/>
    <path id="Path_45" data-name="Path 45" d="M533.773,350.347l-8.026-8.7-8.9-17.39s-6.487-2.007-7.825,1.338-25.416,14.046-25.416,14.046,6.02,56.183,3.344,61.534-7.357,26.754-3.344,28.761,22.741,0,28.761,2.675,23.41,2.675,28.092-.669,6.02-6.02,10.7-4.013c3.986,1.708,13.3-56.692,15.987-74.1a7.922,7.922,0,0,0-3.283-7.7c-6-4.21-16.81-11.464-18.724-10.507C542.468,336.97,533.773,350.347,533.773,350.347Z" transform="translate(-342.147 -180.048)" fill="#575a89"/>
    <path id="Path_46" data-name="Path 46" d="M597.243,359.557h0a7.932,7.932,0,0,1,5.96,6.819l5.411,48.7s-13.377,28.761-20.065,9.364S597.243,359.557,597.243,359.557Z" transform="translate(-376.856 -191.934)" fill="#575a89"/>
    <path id="Path_47" data-name="Path 47" d="M595.06,447.57l14.715-4.013s2.675,18.728,5.351,18.728-9.364,10.7-15.384,9.364-14.715-6.02-15.384-9.364,6.02-17.39,6.02-17.39Z" transform="translate(-376.012 -219.751)" fill="#575a89"/>
    <path id="Path_48" data-name="Path 48" d="M532.271,284.9c1.41-3.109,1.165-6.735,2.331-9.943a11.857,11.857,0,0,1,18.028-5.605c1.5,1.069,3,2.571,4.833,2.367,1.971-.22,3.729-2.419,5.541-1.613,2.008.893,1.466,4.493,3.5,5.324a2.572,2.572,0,0,0,2.954-1.214,7.507,7.507,0,0,0,.86-3.328c.281-2.853.535-5.872-.7-8.458a20.252,20.252,0,0,1-1.357-2.736,9.359,9.359,0,0,1-.258-2.7c-.011-3.353-.256-6.85-1.943-9.748a14.134,14.134,0,0,0-8.945-6.168,34.125,34.125,0,0,0-11.1-.446c-6.129.519-12.52,1.631-17.349,5.441a6.787,6.787,0,0,0-1.668,1.752,9.046,9.046,0,0,0-.888,2.569,53.142,53.142,0,0,1-4.66,12.225,26.516,26.516,0,0,0-2.4,5.194,6.723,6.723,0,0,0,.594,5.525c.873,1.289,2.268,1.976,3.364,3.03s1.594,3.053,2.8,3.844c1.05.69,2.308.2,3.38.935C530.552,282.083,530.651,284.142,532.271,284.9Z" transform="translate(-354.291 -152.472)" fill="#2f2e41"/>
    <path id="Path_49" data-name="Path 49" d="M564.382,376.57l2.007-4.013s29.429,8.7,35.449,16.721c0,0,14.715-9.364,22.741-8.026l8.026,1.338-24.747,22.072-31.436-2.675Z" transform="translate(-369.412 -196.239)" fill="#f2f2f2"/>
    <path id="Path_50" data-name="Path 50" d="M548.8,372.557l-27.423,38.124,39.462,19.4s3.689,2.007,6.527,0l26.247-12.039,24.747-35.449L593.618,395.3s-2.675-5.351-8.026-2.675Z" transform="translate(-355.172 -196.239)" fill="#778ada"/>
    <path id="Path_51" data-name="Path 51" d="M623.726,454.748l5.351-14.046s12.039-15.384,5.351-22.741-14.046,21.4-14.046,21.4Z" transform="translate(-387.956 -210.876)" fill="#a0616a"/>
    <path id="Path_52" data-name="Path 52" d="M533.079,455.846l11.676-9.466s18.133-7.267,16.038-16.987S537.9,440.861,537.9,440.861Z" transform="translate(-359.046 -214.215)" fill="#a0616a"/>
    <path id="Path_53" data-name="Path 53" d="M481.966,366.875H481.3s-10.367-12.374-12.374,4.348-8.7,72.236,8.7,74.242,29.764-8.361,29.764-8.361,12.708-19.4,8.026-19.4c-2.265,0-8.426-1.017-14.046-.669-5.995.372-11.381,2.061-11.036.334C491,414.029,500.694,371.557,481.966,366.875Z" transform="translate(-336.825 -192.898)" opacity="0.1"/>
    <path id="Path_54" data-name="Path 54" d="M479.307,348.895l-2.675-1.338s-10.7,2.007-12.708,18.728-8.7,72.236,8.7,74.242,40.8-2.675,40.8-2.675,4.682-25.416,0-25.416-28.761,3.344-28.092,0S498.035,353.577,479.307,348.895Z" transform="translate(-335.169 -187.96)" fill="#575a89"/>
    <path id="Path_55" data-name="Path 55" d="M338,347.517l7.375-11.3,4.664,18.662L338,360.225Z" transform="translate(-111.929 -111.337)" fill="#575a89"/>
    <circle id="Ellipse_6" data-name="Ellipse 6" cx="18.059" cy="18.059" r="18.059" transform="translate(56.5 38.869)" fill="#fac7c2"/>
    <rect id="Rectangle_7" data-name="Rectangle 7" width="42.806" height="42.806" transform="translate(53.156 191.367)" fill="#fac7c2"/>
    <path id="Path_56" data-name="Path 56" d="M361.272,0l10.835,18.766L382.94,37.532H339.6l10.834-18.766Z" transform="translate(-112.459)" fill="#fac7c2"/>
    <path id="Path_57" data-name="Path 57" d="M886.268,250.782q-.388,12.01-5.849,19.252t-12.977,7.244q-6.121,0-10.73-7.089t-4.61-21.808q0-3.254.155-6.2t.387-5.578l2.712-25.489h-17.9q-4.648,48.343-7.631,57.524t-10.11,9.181a8.548,8.548,0,0,1-5.733-2.4,8.069,8.069,0,0,1-2.712-6.353q0-3.562,5.617-9.955t6.237-11.66l4.648-36.335h-7.514a13.317,13.317,0,0,0-6.082,1.511,11.475,11.475,0,0,0-4.377,3.525l-3.331,4.958h-2.712q3.8-11.775,9.336-17.7t12.744-5.927h59.19v13.635H865.04q-.93,9.3-1.433,18.593t-.5,18.671q0,6.353,2.944,10.3a8.864,8.864,0,0,0,7.36,3.951,9.692,9.692,0,0,0,5.694-2.208,8.006,8.006,0,0,0,3.37-5.772q.232-1.7.349-2.673t.116-1.2Z" transform="translate(-448.682 -138.263)" fill="#6c63ff"/>
    <path id="Path_58" data-name="Path 58" d="M886.268,250.782q-.388,12.01-5.849,19.252t-12.977,7.244q-6.121,0-10.73-7.089t-4.61-21.808q0-3.254.155-6.2t.387-5.578l2.712-25.489h-17.9q-4.648,48.343-7.631,57.524t-10.11,9.181a8.548,8.548,0,0,1-5.733-2.4,8.069,8.069,0,0,1-2.712-6.353q0-3.562,5.617-9.955t6.237-11.66l4.648-36.335h-7.514a13.317,13.317,0,0,0-6.082,1.511,11.475,11.475,0,0,0-4.377,3.525l-3.331,4.958h-2.712q3.8-11.775,9.336-17.7t12.744-5.927h59.19v13.635H865.04q-.93,9.3-1.433,18.593t-.5,18.671q0,6.353,2.944,10.3a8.864,8.864,0,0,0,7.36,3.951,9.692,9.692,0,0,0,5.694-2.208,8.006,8.006,0,0,0,3.37-5.772q.232-1.7.349-2.673t.116-1.2Z" transform="translate(-448.682 -138.263)" opacity="0.1"/>
    <path id="Path_59" data-name="Path 59" d="M886.268,247.163q-.388,12.009-5.849,19.252t-12.977,7.244q-6.121,0-10.73-7.089t-4.61-21.808q0-3.254.155-6.2t.387-5.578l2.712-25.489h-17.9q-4.648,48.343-7.631,57.524t-10.11,9.181a8.548,8.548,0,0,1-5.733-2.4,8.069,8.069,0,0,1-2.712-6.353q0-3.562,5.617-9.955t6.237-11.66l4.648-36.335h-7.514a13.317,13.317,0,0,0-6.082,1.511,11.474,11.474,0,0,0-4.377,3.525l-3.331,4.958h-2.712q3.8-11.775,9.336-17.7t12.744-5.927h59.19V207.5H865.04q-.93,9.3-1.433,18.593t-.5,18.671q0,6.353,2.944,10.3a8.864,8.864,0,0,0,7.36,3.951,9.692,9.692,0,0,0,5.694-2.208,8.006,8.006,0,0,0,3.37-5.772q.232-1.7.349-2.673t.116-1.2Z" transform="translate(-448.682 -137.064)" fill="#778ada"/>
  </g>
</svg>
