<svg xmlns="http://www.w3.org/2000/svg" xmlns:xlink="http://www.w3.org/1999/xlink" width="1920" height="1207" viewBox="0 0 1920 1207">
  <defs>
    <clipPath id="clip-path">
      <rect id="Rectangle_1099" data-name="Rectangle 1099" width="1920" height="1207" transform="translate(0 940)" fill="#fff" stroke="#707070" stroke-width="1"/>
    </clipPath>
  </defs>
  <g id="center-bubbles" transform="translate(0 -940)" clip-path="url(#clip-path)">
    <g id="Group_160" data-name="Group 160">
      <path id="small-purple-blob-center" d="M531,0c423.744,88.847,491.639,143.011,531,303S931.095,620.948,531,606,0,470.342,0,303,107.256-88.847,531,0Z" transform="translate(1220 1447)" fill="rgba(119,138,218,0.62)"/>
      <path id="big-purple-blob-topleft" d="M3911.168,540c-247.763-134.825-426.327,222.295-991.052,0S1990,540,1990,540s-530.194,88.48,0,539.3,1626.183,431.712,1921.168,0S4158.931,674.825,3911.168,540Z" transform="translate(-1975 550)" fill="rgba(119,138,218,0.57)" stroke="#707070" stroke-width="1"/>
      <g id="circles" transform="translate(94 1879)">
        <circle id="small-pink-circle" cx="100" cy="100" r="100" transform="translate(-56 -444)" fill="#fbcdc8"/>
        <ellipse id="white-ring-circle" cx="119" cy="121.5" rx="119" ry="121.5" transform="translate(-122 -487)" fill="none" stroke="#f7f9fd" stroke-width="3"/>
        <ellipse id="big-pink-circle" cx="191.5" cy="188.5" rx="191.5" ry="188.5" transform="translate(-56 -244)" fill="#fef3f2"/>
      </g>
    </g>
  </g>
</svg>
