<svg xmlns="http://www.w3.org/2000/svg" width="100" height="93.548" viewBox="0 0 100 93.548">
  <g id="exclamation-mark-icon" transform="translate(-8 -24)">
    <path id="exclamation-mark-curve" d="M240.065,128h-6.452A1.613,1.613,0,0,0,232,129.613v19.355a1.613,1.613,0,0,0,1.613,1.613h6.452a1.613,1.613,0,0,0,1.613-1.613V129.613A1.613,1.613,0,0,0,240.065,128Zm-1.613,19.355h-3.226V131.226h3.226Z" transform="translate(-178.839 -83.032)" fill="#fac7c2"/>
    <path id="exclamation-mark-dot" d="M240.065,248h-6.452A1.613,1.613,0,0,0,232,249.613v6.452a1.613,1.613,0,0,0,1.613,1.613h6.452a1.613,1.613,0,0,0,1.613-1.613v-6.452A1.613,1.613,0,0,0,240.065,248Zm-1.613,6.452h-3.226v-3.226h3.226Z" transform="translate(-178.839 -178.839)" fill="#fac7c2"/>
    <path id="exclamation-mark-box" d="M102.355,24H13.645A5.652,5.652,0,0,0,8,29.645V95.774a5.652,5.652,0,0,0,5.645,5.645h8.871v14.516a1.613,1.613,0,0,0,2.753,1.141l15.656-15.657h61.429A5.652,5.652,0,0,0,108,95.774V29.645A5.652,5.652,0,0,0,102.355,24Zm2.419,71.774a2.422,2.422,0,0,1-2.419,2.419h-62.1a1.613,1.613,0,0,0-1.141.472L25.742,112.042V99.806a1.613,1.613,0,0,0-1.613-1.613H13.645a2.422,2.422,0,0,1-2.419-2.419V29.645a2.422,2.422,0,0,1,2.419-2.419h88.71a2.422,2.422,0,0,1,2.419,2.419Z" fill="#4b64cf"/>
  </g>
</svg>
