<svg xmlns="http://www.w3.org/2000/svg" width="459.798" height="333.283" viewBox="0 0 459.798 333.283">
  <g id="girl-illustration" transform="translate(0 0)">
    <path id="Path_7" data-name="Path 7" d="M551.991,584.643v80.341H350.706c-22.934,0-41.593-18.021-41.593-40.17s18.659-40.17,41.593-40.17Z" transform="translate(-258.985 -334.791)" fill="#f2f2f2"/>
    <path id="Path_8" data-name="Path 8" d="M554.261,663.22a3.091,3.091,0,0,1-3.09,3.09H344.448a42.334,42.334,0,0,1,0-84.667H551.171a3.09,3.09,0,0,1,0,6.18H344.448a36.153,36.153,0,0,0,0,72.307H551.171A3.091,3.091,0,0,1,554.261,663.22Z" transform="translate(-256.311 -333.645)" fill="#fac7c2"/>
    <path id="Path_9" data-name="Path 9" d="M568.035,613.879h-216.3a.618.618,0,0,1,0-1.236h216.3a.618.618,0,0,1,0,1.236Z" transform="translate(-275.029 -345.487)" fill="#ccc"/>
    <path id="Path_10" data-name="Path 10" d="M568.035,637.879h-216.3a.618.618,0,1,1,0-1.236h216.3a.618.618,0,0,1,0,1.236Z" transform="translate(-275.029 -354.655)" fill="#ccc"/>
    <path id="Path_11" data-name="Path 11" d="M568.035,661.879h-216.3a.618.618,0,1,1,0-1.236h216.3a.618.618,0,0,1,0,1.236Z" transform="translate(-275.029 -363.823)" fill="#ccc"/>
    <path id="Path_12" data-name="Path 12" d="M568.035,685.879h-216.3a.618.618,0,1,1,0-1.236h216.3a.618.618,0,0,1,0,1.236Z" transform="translate(-275.029 -372.99)" fill="#ccc"/>
    <path id="Path_13" data-name="Path 13" d="M816.018,525.22l-50.408,62.56L608.875,461.49c-17.858-14.389-21.081-40.129-7.184-57.376s39.733-19.573,57.591-5.184Z" transform="translate(-367.449 -260.245)" fill="#f2f2f2"/>
    <path id="Path_14" data-name="Path 14" d="M767.191,588.16a3.091,3.091,0,0,1-4.345.467l-160.971-129.7A42.333,42.333,0,1,1,655,393L815.968,522.7a3.09,3.09,0,0,1-3.878,4.812l-160.972-129.7a36.153,36.153,0,0,0-45.367,56.3l160.971,129.7a3.091,3.091,0,0,1,.468,4.345Z" transform="translate(-364.792 -258.004)" fill="#ccc"/>
    <path id="Path_15" data-name="Path 15" d="M830.759,547.91,662.329,412.2a.618.618,0,1,1,.776-.962L831.535,546.948a.618.618,0,1,1-.775.962Z" transform="translate(-393.822 -268.498)" fill="#ccc"/>
    <path id="Path_16" data-name="Path 16" d="M815.7,566.6,647.271,430.886a.618.618,0,1,1,.775-.962L816.477,565.636a.618.618,0,1,1-.776.962Z" transform="translate(-388.07 -275.637)" fill="#ccc"/>
    <path id="Path_17" data-name="Path 17" d="M800.643,585.287,632.213,449.575a.618.618,0,0,1,.776-.962L801.419,584.325a.618.618,0,1,1-.776.963Z" transform="translate(-382.318 -282.776)" fill="#ccc"/>
    <path id="Path_18" data-name="Path 18" d="M785.585,603.975,617.155,468.263a.618.618,0,0,1,.776-.962L786.36,603.013a.618.618,0,0,1-.775.963Z" transform="translate(-376.566 -289.915)" fill="#ccc"/>
    <path id="Path_19" data-name="Path 19" d="M687.18,718.879H228.618a.618.618,0,0,1,0-1.236H687.18a.618.618,0,0,1,0,1.236Z" transform="translate(-228 -385.596)" fill="#ccc"/>
    <path id="Path_20" data-name="Path 20" d="M331.637,373.777h-7.065l-3.36-27.252H331.64Z" transform="translate(-122.701 -132.37)" fill="#ffb8b8"/>
    <path id="Path_21" data-name="Path 21" d="M313.179,387.355H326.8v8.579H304.6a8.579,8.579,0,0,1,8.579-8.579Z" transform="translate(-116.355 -147.967)" fill="#2f2e41"/>
    <path id="Path_22" data-name="Path 22" d="M214.842,373.777h-7.065l-3.36-27.252h10.428Z" transform="translate(-78.086 -132.37)" fill="#ffb8b8"/>
    <path id="Path_23" data-name="Path 23" d="M196.385,387.355h13.626v8.579h-22.2a8.579,8.579,0,0,1,8.579-8.579Z" transform="translate(-71.74 -147.967)" fill="#2f2e41"/>
    <path id="Path_24" data-name="Path 24" d="M487.471,229.661v-3.09A19.931,19.931,0,0,1,507.4,206.64h0a19.931,19.931,0,0,1,19.931,19.931v3.09a14.369,14.369,0,0,1-14.369,14.369H501.84a14.369,14.369,0,0,1-14.369-14.369Z" transform="translate(-327.116 -190.397)" fill="#2f2e41"/>
    <circle id="Ellipse_1" data-name="Ellipse 1" cx="15.179" cy="15.179" r="15.179" transform="translate(165.107 24.338)" fill="#ffb8b8"/>
    <path id="Path_25" data-name="Path 25" d="M634.488,376.475" transform="translate(-383.275 -255.273)" fill="#ffb8b8"/>
    <path id="Path_26" data-name="Path 26" d="M384.979,327.735a5.8,5.8,0,0,1,8.825,1.036l13.012-2.461,3.424,7.542-18.424,3.218a5.826,5.826,0,0,1-6.837-9.336Z" transform="translate(-287.257 -236.05)" fill="#ffb8b8"/>
    <path id="Path_27" data-name="Path 27" d="M464.305,283.858l.17.258-21.338,14.056-36,11.5a2.168,2.168,0,0,0-1.491,2.31l.785,6.765a2.163,2.163,0,0,0,2.6,1.865l33.885-7.263a12.241,12.241,0,0,0,4.556-2.006l23.971-17.055a6.165,6.165,0,0,0-6.967-10.17Z" transform="translate(-295.853 -219.603)" fill="#ccc"/>
    <path id="Path_28" data-name="Path 28" d="M506.819,477.479a2.793,2.793,0,0,1-2.557-1.67l-32.389-80.032a.927.927,0,0,0-1.736.1l-26.425,77.914a2.782,2.782,0,0,1-3.635,1.787l-8.861-3.323a2.774,2.774,0,0,1-1.79-2.289C425.439,435.236,460.2,347.579,460.554,346.7l.1-.244,31.69,7.01.066.072c12.643,13.793,23.035,100.786,24.99,118.085a2.768,2.768,0,0,1-1.836,2.933l-7.822,2.766A2.756,2.756,0,0,1,506.819,477.479Z" transform="translate(-304.821 -243.805)" fill="#2f2e41"/>
    <path id="Path_29" data-name="Path 29" d="M498.493,328.548c-7.678,0-16.238-1.531-18.873-7.849l-.061-.145.082-.135c2.08-3.412,4.828-9.233,3.351-10.326-2.91-2.152-4.323-5.692-4.2-10.522a25.35,25.35,0,0,1,17.778-23.164h0a78.9,78.9,0,0,1,8.814-2.27,15.006,15.006,0,0,1,12.442,3.073,15.157,15.157,0,0,1,5.621,11.662c.109,11.205-1.616,26.811-10.452,37.526a2.749,2.749,0,0,1-1.627.946,75.534,75.534,0,0,1-12.879,1.2Z" transform="translate(-323.799 -216.067)" fill="#ccc"/>
    <path id="Path_30" data-name="Path 30" d="M505.914,353.786a5.906,5.906,0,0,1,7.217-4.119,5.814,5.814,0,0,1,.895.331l9.88-8.991,6.871,4.629-14.129,12.5a5.9,5.9,0,0,1-6.683,2.835,5.806,5.806,0,0,1-4.052-7.188Z" transform="translate(-334.076 -241.724)" fill="#ffb8b8"/>
    <path id="Path_31" data-name="Path 31" d="M528.506,331.869a2.773,2.773,0,0,1-1.759-.627l-3.9-3.184a2.781,2.781,0,0,1,.067-4.36l16.341-12.533a.929.929,0,0,0,.175-1.295l-10.086-13.334a8.21,8.21,0,0,1,.548-10.577h0a8.187,8.187,0,0,1,11.055-.884l.064.067,10.532,15.081a9.389,9.389,0,0,1-.223,14.947l-21.164,16.154a2.785,2.785,0,0,1-1.655.545Z" transform="translate(-340.241 -219.693)" fill="#ccc"/>
    <path id="Path_32" data-name="Path 32" d="M497.965,229.106v-7.531L511.41,215.7l12.82,5.871v7.531a1.236,1.236,0,0,1-1.236,1.236H499.2a1.236,1.236,0,0,1-1.236-1.236Z" transform="translate(-331.125 -193.859)" fill="#2f2e41"/>
    <path id="Path_33" data-name="Path 33" d="M518.415,197.6c-1.977-6.327,2.175-13.579,8.313-16.084s13.481-.754,18.66,3.384,8.392,10.336,10.095,16.743,2.026,13.087,2.34,19.709c7.541,1.385,12.671,10.33,10.059,17.538s-12.281,10.79-18.959,7.022-8.612-13.9-3.792-19.859a16.3,16.3,0,0,0-18.965-25.282C522.448,202.324,517.784,198.286,518.415,197.6Z" transform="translate(-338.746 -180.357)" fill="#2f2e41"/>
    <path id="Path_34" data-name="Path 34" d="M364.424,260.7a64.55,64.55,0,0,1-26.171-5.732,2.764,2.764,0,0,1-1.639-2.536V229.924a2.784,2.784,0,0,1,2.781-2.781h50.059a2.784,2.784,0,0,1,2.781,2.781v22.507a2.764,2.764,0,0,1-1.639,2.536h0a64.549,64.549,0,0,1-26.171,5.732Z" transform="translate(-269.49 -198.229)" fill="#778ada"/>
    <path id="Path_35" data-name="Path 35" d="M355.348,228.839a2.784,2.784,0,0,1-1.081-.217l-39.7-16.748a2.781,2.781,0,0,1,.095-5.162l39.7-15.06a2.771,2.771,0,0,1,1.985,0l39.164,15.059a2.781,2.781,0,0,1,.1,5.153l-39.165,16.748a2.785,2.785,0,0,1-1.094.222Z" transform="translate(-260.42 -184.602)" fill="#778ada"/>
    <circle id="Ellipse_2" data-name="Ellipse 2" cx="3.708" cy="3.708" r="3.708" transform="translate(68.051 50.853)" fill="#3f3d56"/>
    <path id="Path_36" data-name="Path 36" d="M396.091,219.992l-39.165,16.747a2.472,2.472,0,0,1-1.933,0L315.3,220a2.425,2.425,0,0,1-1.182-1.039,2.47,2.47,0,0,0,1.182,3.511l39.7,16.747a2.472,2.472,0,0,0,1.933,0l39.165-16.748a2.47,2.47,0,0,0,1.171-3.506,2.427,2.427,0,0,1-1.171,1.034Z" transform="translate(-260.769 -195.102)" opacity="0.2"/>
    <path id="Path_37" data-name="Path 37" d="M344.236,250.1a.618.618,0,0,0,.618-.618V228.8l20.383-7.425a.618.618,0,0,0,.018-1.236l-20.383,7.425a1.212,1.212,0,0,0-.886.355,1.227,1.227,0,0,0-.369.881v20.679A.618.618,0,0,0,344.236,250.1Z" transform="translate(-272.165 -195.555)" fill="#3f3d56"/>
  </g>
</svg>
