<svg xmlns="http://www.w3.org/2000/svg" width="100" height="100" viewBox="0 0 100 100">
  <g id="link-icon" transform="translate(0 0)">
    <g id="Group_14" data-name="Group 14" transform="translate(33.625 0)">
      <g id="Group_13" data-name="Group 13">
        <path id="Path_89" data-name="Path 89" d="M231.67,6.865a23.437,23.437,0,0,0-33.146,0L178.935,26.453a23.659,23.659,0,0,0,0,33.146,22.308,22.308,0,0,0,4.711,3.575l3.575-3.575c2.345-2.345,1.52-5.087,1.477-7.065a11.314,11.314,0,0,1-1.477-1.221,11.845,11.845,0,0,1,0-16.573L206.81,15.151a11.719,11.719,0,1,1,16.573,16.573L210.435,44.672c.374,2.072,2.621,6.979,1.466,15.074.056-.055.124-.091.18-.147L231.67,40.011A23.438,23.438,0,0,0,231.67,6.865Z" transform="translate(-172.159 0)" fill="#4b64cf"/>
      </g>
    </g>
    <g id="Group_16" data-name="Group 16" transform="translate(0 35.308)">
      <g id="Group_15" data-name="Group 15">
        <path id="Path_90" data-name="Path 90" d="M61.117,184.351a22.308,22.308,0,0,0-4.711-3.575l-3.575,3.575c-2.345,2.345-1.52,5.087-1.478,7.065a11.291,11.291,0,0,1,1.478,1.221,11.845,11.845,0,0,1,0,16.573L31.724,230.317a11.719,11.719,0,0,1-16.573-16.573l14.466-14.466C29.243,197.206,27,192.3,28.152,184.2c-.056.055-.124.092-.181.148L6.865,205.458A23.438,23.438,0,0,0,40.011,238.6L61.117,217.5A23.646,23.646,0,0,0,61.117,184.351Z" transform="translate(0 -180.776)" fill="#fac7c2"/>
      </g>
    </g>
  </g>
</svg>
