<svg xmlns="http://www.w3.org/2000/svg" width="100" height="90.035" viewBox="0 0 100 90.035">
  <g id="question-mark-icon" transform="translate(395 -22.906)">
    <path id="question-mark-curve" d="M121.392,44A17.41,17.41,0,0,0,104,61.392a2.046,2.046,0,0,0,2.046,2.046h6.138a2.046,2.046,0,0,0,2.046-2.046,7.161,7.161,0,1,1,7.161,7.161h-3.069a2.046,2.046,0,0,0-2.046,2.046V81.852a2.046,2.046,0,0,0,2.046,2.046h6.138a2.046,2.046,0,0,0,2.046-2.046V78.016A17.392,17.392,0,0,0,121.392,44Zm2.66,30.425a2.046,2.046,0,0,0-1.637,2v3.379h-2.046V72.645h1.023a11.253,11.253,0,1,0-11.067-13.3h-2.077a13.3,13.3,0,1,1,15.8,15.08Z" transform="translate(-466.802 -12.979)" fill="#fac7c2"/>
    <path id="question-mark-dot" d="M162.23,216.184v-6.138A2.046,2.046,0,0,0,160.184,208h-6.138A2.046,2.046,0,0,0,152,210.046v6.138a2.046,2.046,0,0,0,2.046,2.046h6.138A2.046,2.046,0,0,0,162.23,216.184Zm-4.092-2.046h-2.046v-2.046h2.046Z" transform="translate(-502.525 -134.035)" fill="#fac7c2"/>
    <path id="question-mark-box" d="M102.355,24H13.645A5.549,5.549,0,0,0,8,29.433V93.079a5.549,5.549,0,0,0,5.645,5.433h8.871v13.971a1.553,1.553,0,0,0,1,1.434,1.659,1.659,0,0,0,1.758-.337L40.926,98.512h61.429A5.549,5.549,0,0,0,108,93.079V29.433A5.549,5.549,0,0,0,102.355,24Zm2.419,69.079a2.378,2.378,0,0,1-2.419,2.329h-62.1a1.645,1.645,0,0,0-1.141.455L25.742,108.735V96.96a1.583,1.583,0,0,0-1.613-1.552H13.645a2.378,2.378,0,0,1-2.419-2.329V29.433A2.378,2.378,0,0,1,13.645,27.1h88.71a2.378,2.378,0,0,1,2.419,2.329Z" transform="translate(-403 -1.094)" fill="#4b64cf"/>
  </g>
</svg>
