<svg xmlns="http://www.w3.org/2000/svg" xmlns:xlink="http://www.w3.org/1999/xlink" width="245" height="430" viewBox="0 0 245 430">
  <defs>
    <clipPath id="clip-path">
      <rect id="Rectangle_1102" data-name="Rectangle 1102" width="245" height="430" transform="translate(1675 77)" fill="#fff" stroke="#707070" stroke-width="1"/>
    </clipPath>
  </defs>
  <g id="pink-blob" transform="translate(-1675 -77)" clip-path="url(#clip-path)">
    <path id="big-pink-blob" d="M197.5,0C306.576,0,395,75.888,395,169.5S384.344,358.7,275.268,358.7c-57.483,0-190.591,14.124-226.881-19.7C16.191,308.992,0,213.779,0,169.5,0,122.694-2.972,78.466,32.946,47.641,68.509,17.119,142.962,0,197.5,0Z" transform="translate(1731 96)" fill="rgba(250,199,194,0.55)"/>
    <g id="small-pink-blob" transform="translate(1784 185.598)" fill="rgba(250,199,194,0.29)">
      <path d="M 109.8009872436523 219.5267486572266 C 90.89028930664063 219.5267486572266 75.83412170410156 218.6523132324219 63.77218627929688 216.8534240722656 C 56.68738555908203 215.7968139648438 50.5563850402832 214.3965911865234 45.54951858520508 212.6915893554688 C 40.18008422851563 210.8631134033203 35.94421768188477 208.6324920654297 32.95965194702148 206.0616912841797 C 28.11358642578125 201.8875122070313 23.53585243225098 195.28515625 19.35358619689941 186.4379577636719 C 15.6317195892334 178.5647583007813 12.29818534851074 169.0932922363281 9.445586204528809 158.2866821289063 C 6.947885990142822 148.8246459960938 4.881918907165527 138.4957580566406 3.47101902961731 128.4166259765625 C 2.186919212341309 119.2431488037109 1.479719161987305 110.4294509887695 1.479719161987305 103.5990829467773 C 1.479719161987305 101.5540161132813 1.469552397727966 99.49002075195313 1.459752440452576 97.4940185546875 C 1.394652485847473 84.27311706542969 1.333219170570374 71.78545379638672 4.004118919372559 60.33935165405273 C 5.422052383422852 54.26285171508789 7.489452362060547 49.00032043457031 10.32448577880859 44.25105285644531 C 13.48378562927246 38.9586181640625 17.53211975097656 34.39308547973633 22.70081901550293 30.2935848236084 C 28.24745178222656 25.89425277709961 35.48415374755859 21.78475189208984 44.20988464355469 18.0792179107666 C 52.36371994018555 14.61655235290527 61.66041946411133 11.56815242767334 71.84175109863281 9.018651962280273 C 81.50628662109375 6.598585605621338 91.61008453369141 4.713085174560547 101.8724822998047 3.414551973342896 C 111.9123153686523 2.144152164459229 121.5769882202148 1.500018715858459 130.5979461669922 1.500018715858459 C 139.3799896240234 1.500018715858459 148.1558532714844 2.201652050018311 156.6817932128906 3.585418701171875 C 164.9880828857422 4.933518886566162 173.1575927734375 6.944818496704102 180.96337890625 9.563451766967773 C 188.6234893798828 12.13318538665771 196.0105590820313 15.31325244903564 202.9193878173828 19.01525115966797 C 209.7572784423828 22.67925262451172 216.1859893798828 26.88601875305176 222.0268859863281 31.51868629455566 C 227.8614501953125 36.1463508605957 233.1571197509766 41.23675155639648 237.7667541503906 46.64851760864258 C 242.4143829345703 52.10488510131836 246.4050903320313 57.93585205078125 249.6279907226563 63.97948455810547 C 252.90625 70.12688446044922 255.423583984375 76.55828857421875 257.1100463867188 83.09498596191406 C 258.83935546875 89.79778289794922 259.7161865234375 96.69635009765625 259.7161865234375 103.5990829467773 C 259.7161865234375 121.0639495849609 259.032958984375 134.0203552246094 257.5008239746094 145.6092834472656 C 255.5505828857422 160.3607482910156 252.2240600585938 172.3326873779297 247.3311157226563 182.2091522216797 C 244.6174926757813 187.6866912841797 241.365478515625 192.5754852294922 237.6654510498047 196.7396850585938 C 233.7388458251953 201.1588897705078 229.1662902832031 204.9218444824219 224.0747222900391 207.9240570068359 C 218.6886596679688 211.0999450683594 212.5378875732422 213.5339202880859 205.7933197021484 215.1584167480469 C 198.6843566894531 216.8706512451172 190.6893920898438 217.7388458251953 182.0304260253906 217.7388458251953 C 174.3326263427734 217.7388458251953 164.8137512207031 218.0834808349609 153.7917785644531 218.4825897216797 C 140.2737579345703 218.9720153808594 124.9521179199219 219.5267486572266 109.8009872436523 219.5267486572266 Z" stroke="none"/>
      <path d="M 130.5979309082031 3 C 121.6396789550781 3 112.0383911132813 3.64013671875 102.060791015625 4.902679443359375 C 91.85743713378906 6.193740844726563 81.81289672851563 8.068099975585938 72.20611572265625 10.47370910644531 C 62.10035705566406 13.00428771972656 52.87832641601563 16.02767944335938 44.79618835449219 19.45988464355469 C 36.19442749023438 23.11277770996094 29.07408142089844 27.15316772460938 23.6329345703125 31.46881103515625 C 18.60896301269531 35.4534912109375 14.67704772949219 39.8861083984375 11.61247253417969 45.01992797851563 C 8.858001708984375 49.63424682617188 6.847076416015625 54.75674438476563 5.464859008789063 60.68020629882813 C 2.83404541015625 71.95449829101563 2.895111083984375 84.35649108886719 2.959716796875 97.48663330078125 C 2.96954345703125 99.4844970703125 2.979705810546875 101.5503158569336 2.979705810546875 103.5991058349609 C 2.979705810546875 110.3620681762695 3.681747436523438 119.101921081543 4.95654296875 128.2086791992188 C 6.359329223632813 138.2299194335938 8.413116455078125 148.4983520507813 10.89590454101563 157.9038543701172 C 13.72511291503906 168.6218872070313 17.02696228027344 178.0064544677734 20.70964050292969 185.7968902587891 C 24.80168151855469 194.4531707763672 29.25250244140625 200.8888244628906 33.93853759765625 204.9251403808594 C 39.49343872070313 209.7099304199219 49.60536193847656 213.2240295410156 63.99346923828125 215.3698577880859 C 75.98139953613281 217.1576690673828 90.96517944335938 218.0267791748047 109.8010406494141 218.0267791748047 C 124.9250030517578 218.0267791748047 140.2322082519531 217.4725646972656 153.7375030517578 216.9835662841797 C 164.7740020751953 216.5839538574219 174.3054656982422 216.2388458251953 182.0303955078125 216.2388458251953 C 190.5711822509766 216.2388458251953 198.447998046875 215.3847045898438 205.4420471191406 213.7001342773438 C 212.0421447753906 212.1104278564453 218.0547485351563 209.7323455810547 223.3128356933594 206.6319580078125 C 228.2697143554688 203.7091369628906 232.7213592529297 200.0457153320313 236.5441131591797 195.7433471679688 C 240.1555480957031 191.6788940429688 243.3326110839844 186.9012756347656 245.9869995117188 181.5432739257813 C 250.8056793212891 171.8167114257813 254.0854644775391 159.998291015625 256.0137634277344 145.4127197265625 C 257.5369262695313 133.8914489746094 258.2161865234375 120.9956741333008 258.2161865234375 103.5991058349609 C 258.2161865234375 96.82267761230469 257.3553466796875 90.0501708984375 255.6576080322266 83.46971130371094 C 254.0007934570313 77.04795837402344 251.5268249511719 70.72796630859375 248.3044281005859 64.68528747558594 C 245.1322174072266 58.73670959472656 241.2026062011719 52.99552917480469 236.6248321533203 47.62117004394531 C 232.0782165527344 42.28341674804688 226.8531494140625 37.26116943359375 221.0947570800781 32.69392395019531 C 215.3236846923828 28.11663818359375 208.9702453613281 23.95927429199219 202.2109375 20.33738708496094 C 195.3760375976563 16.67503356933594 188.0668334960938 13.52859497070313 180.4862976074219 10.98553466796875 C 172.7574768066406 8.392745971679688 164.6676025390625 6.401138305664063 156.4414672851563 5.065994262695313 C 147.9947509765625 3.695098876953125 139.2997131347656 3 130.5979309082031 3 M 130.5979309082031 0 C 202.7363891601563 0 261.2161865234375 46.38288879394531 261.2161865234375 103.5991058349609 C 261.2161865234375 160.8152770996094 254.1688690185547 219.2388458251953 182.0303955078125 219.2388458251953 C 164.7297058105469 219.2388458251953 137.0692749023438 221.0267639160156 109.8010406494141 221.0267639160156 C 77.14936828613281 221.0267639160156 45.05926513671875 218.4636383056641 31.98065185546875 207.1981811523438 C 10.68746948242188 188.8572845458984 -0.020294189453125 130.662353515625 -0.020294189453125 103.5991058349609 C -0.020294189453125 74.99099731445313 -1.985748291015625 47.95892333984375 21.7686767578125 29.11834716796875 C 45.28875732421875 10.46342468261719 94.52871704101563 0 130.5979309082031 0 Z" stroke="none" fill="#fff"/>
    </g>
  </g>
</svg>
